<svg width="1498" height="339" viewBox="0 0 1498 339" fill="none" xmlns="http://www.w3.org/2000/svg">
<mask id="mask0_7_2192" style="mask-type:alpha" maskUnits="userSpaceOnUse" x="0" y="0" width="1498" height="339">
<rect width="1498" height="339" rx="9" fill="#2E1065"/>
<rect x="0.5" y="0.5" width="1497" height="338" rx="8.5" stroke="white" stroke-opacity="0.2"/>
</mask>
<g mask="url(#mask0_7_2192)">
<path d="M1741.09 704.883C1744.18 707.199 1747.77 708.795 1751.54 709.501C1755.3 710.217 1759.21 710.032 1762.89 709.013C1770.21 706.702 1777.38 703.77 1784.28 700.397C1798.12 693.668 1811.07 685.151 1822.75 675.17C1834.45 665.207 1844.97 653.913 1854.08 641.545C1858.65 635.384 1862.95 629.025 1866.81 622.412C1870.66 615.793 1874.12 608.964 1877.09 601.931C1883.09 587.917 1886.9 572.943 1887.51 557.85C1888.13 542.764 1885.21 527.649 1879.45 513.699C1873.72 499.724 1865.48 486.826 1855.82 475.153C1846.12 463.494 1834.97 453.039 1823.01 443.647C1811.01 434.292 1798.2 425.957 1784.82 418.687C1778.14 415.026 1771.32 411.632 1764.37 408.498C1760.9 406.867 1757.41 405.486 1753.86 403.914C1752.03 403.067 1750.18 402.271 1748.38 401.356C1746.62 400.369 1744.84 399.423 1743.1 398.405C1729.31 390.03 1718.15 377.406 1711.44 362.687C1708.07 355.334 1705.79 347.482 1704.72 339.45C1704.44 337.448 1704.33 335.424 1704.13 333.4C1703.98 331.379 1704.04 329.355 1703.99 327.334C1703.99 323.379 1704.07 319.636 1704.1 315.784C1704.16 285.157 1701.62 254.49 1695.74 224.462C1689.91 194.437 1681.12 164.961 1668.73 137.095C1656.39 109.263 1640.4 82.8882 1619.86 60.6049C1609.59 49.4876 1598.18 39.4424 1585.7 31.0266L1583.36 29.4409L1582.19 28.6429L1580.98 27.917L1576.13 25.0236L1573.71 23.5718L1566.2 19.6855L1564.95 19.0317L1555.93 15.0729L1547.99 12.1785L1546.66 11.7013L1545.31 11.3183C1531.01 6.78278 1516 4.59548 1500.92 4.5551C1485.86 4.52065 1470.73 6.46806 1456.01 10.1586L1453.24 10.7835L1450.49 11.575L1445.01 13.1477C1443.19 13.6739 1441.35 14.178 1439.54 14.7366L1428.74 18.4986L1426.05 19.442C1425.16 19.7781 1424.28 20.1526 1423.39 20.5152L1412.79 24.8422C1411 25.5144 1409.3 26.3991 1407.57 27.1806L1397.16 32.0195C1395.42 32.8274 1393.76 33.7624 1392.05 34.6308L1381.86 39.9346C1378.49 41.7645 1375.2 43.7377 1371.87 45.6281C1358.54 53.212 1345.73 61.7157 1333.05 70.4187C1320.51 79.3108 1308.16 88.4908 1296.25 98.2234C1290.2 102.983 1284.37 108.022 1278.49 112.983C1275.52 115.444 1272.69 118.05 1269.79 120.579C1266.91 123.146 1263.99 125.662 1261.15 128.263L1248.43 140.03L1235.96 152.077C1233.2 154.768 1230.52 157.543 1227.78 160.246C1216.83 171.117 1206.32 182.401 1195.92 193.787C1185.67 205.321 1175.53 216.958 1165.88 229.017C1156.09 240.95 1146.88 253.344 1137.79 265.83L1131.15 275.314C1129.01 278.525 1126.47 281.512 1125.03 285.041C1123.5 288.539 1122.84 292.413 1123.06 296.237C1123.29 300.073 1124.45 303.836 1126.33 307.199C1124.37 303.884 1123.09 300.135 1122.75 296.262C1122.41 292.398 1122.97 288.428 1124.44 284.799C1125.13 282.971 1126.12 281.251 1127.17 279.62L1130.36 274.778L1136.76 265.098L1146.75 250.85L1150.19 246.177L1157.08 236.841C1159.4 233.746 1161.8 230.709 1164.16 227.638C1173.59 215.359 1183.51 203.486 1193.57 191.706C1203.78 180.069 1214.1 168.523 1224.87 157.387C1227.56 154.601 1230.23 151.788 1232.95 149.036L1241.19 140.85L1245.31 136.748L1257.94 124.721C1260.76 122.065 1263.65 119.494 1266.51 116.873C1269.39 114.279 1272.2 111.608 1275.15 109.092C1281 104.012 1286.8 98.8654 1292.81 93.9758C1316.64 74.1216 1341.86 55.856 1368.62 39.9914C1371.98 38.0333 1375.3 36.0087 1378.69 34.111L1389 28.6116C1390.72 27.7122 1392.42 26.742 1394.17 25.8973L1404.71 20.8643C1406.48 20.0476 1408.2 19.132 1410.02 18.4245L1420.82 13.9125C1421.72 13.5396 1422.62 13.1504 1423.53 12.7997L1426.29 11.8122L1437.34 7.89489C1439.21 7.31283 1441.09 6.77943 1442.97 6.22981L1448.61 4.58097L1451.43 3.75137L1454.29 3.08404C1469.47 -0.82463 1485.17 -2.9618 1500.95 -3.02382C1516.71 -3.08147 1532.56 -0.876781 1547.68 3.8028L1549.1 4.20077L1550.5 4.69299L1553.3 5.68771L1558.88 7.68744L1568.38 11.829L1577.59 16.5709L1585.22 21.0971L1586.49 21.8586L1590.16 24.3474C1603.25 33.1291 1615.14 43.5649 1625.8 55.0725C1647.15 78.132 1663.62 105.217 1676.31 133.697C1688.93 162.264 1697.82 192.331 1703.7 222.907C1706.63 238.203 1708.8 253.65 1710.13 269.166C1711.48 284.678 1712.11 300.253 1711.95 315.825C1711.9 319.692 1711.78 323.677 1711.76 327.44C1711.8 329.273 1711.72 331.11 1711.85 332.944C1712.03 334.775 1712.11 336.605 1712.35 338.419C1713.28 345.697 1715.29 352.842 1718.3 359.54C1724.31 372.936 1734.39 384.505 1746.92 392.204C1748.5 393.144 1750.12 394.011 1751.71 394.93C1753.34 395.776 1755.03 396.493 1756.69 397.283C1760.16 398.85 1763.83 400.338 1767.34 402.003C1774.42 405.267 1781.38 408.754 1788.18 412.582C1801.8 420.17 1814.81 428.825 1827.02 438.55C1839.19 448.32 1850.54 459.171 1860.44 471.326C1870.29 483.494 1878.73 496.948 1884.48 511.658C1890.27 526.302 1893.13 542.243 1892.23 558.038C1891.81 565.924 1890.53 573.737 1888.58 581.341C1886.64 588.951 1883.99 596.375 1880.79 603.506C1877.61 610.66 1873.93 617.555 1869.87 624.221C1865.81 630.881 1861.31 637.249 1856.55 643.41C1847.07 655.745 1836.16 667.006 1824.14 676.828C1812.13 686.683 1798.9 695.023 1784.81 701.498C1777.76 704.703 1770.51 707.449 1763.06 709.587C1759.27 710.53 1755.28 710.604 1751.49 709.774C1747.7 708.945 1744.13 707.239 1741.1 704.846L1741.09 704.883Z" fill="url(#paint0_linear_7_2192)"/>
<path d="M1126.31 307.239C1124.33 303.972 1123.52 300.001 1124.01 296.165C1124.46 292.322 1126.17 288.696 1128.51 285.613C1132.75 280.167 1137.24 274.916 1141.34 269.402L1151.07 257.285L1154.4 253.318L1161.08 245.406L1171.34 233.745L1174.84 229.932L1181.86 222.312C1191.36 212.299 1200.98 202.378 1210.98 192.847C1220.9 183.226 1231.11 173.91 1241.53 164.834C1262.44 146.773 1284.12 129.54 1306.84 113.746C1309.7 111.785 1312.51 109.768 1315.4 107.867L1324.06 102.143C1329.86 98.3695 1335.8 94.7955 1341.66 91.1108L1350.66 85.9123L1357.42 82.03L1359.71 80.8126L1368.91 75.9507C1370.45 75.1525 1371.96 74.2937 1373.53 73.55L1378.22 71.2925L1387.63 66.81L1397.21 62.7053C1398.82 62.0281 1400.41 61.3228 1402.01 60.6721L1406.9 58.8411C1410.17 57.6387 1413.4 56.3329 1416.71 55.2337C1429.91 50.7618 1443.46 47.2473 1457.27 44.9081L1467.67 43.4173L1478.16 42.5649C1485.17 42.2482 1492.2 42.1083 1499.23 42.6066C1513.27 43.438 1527.22 46.1377 1540.62 50.5142C1547.3 52.7753 1553.86 55.3808 1560.16 58.5087L1562.54 59.6495L1564.86 60.8829C1566.41 61.7189 1567.98 62.5035 1569.51 63.3763C1572.55 65.1411 1575.6 66.8911 1578.54 68.8206C1581.53 70.6574 1584.37 72.7354 1587.26 74.7207C1590.06 76.8443 1592.92 78.8811 1595.6 81.131C1601.09 85.4942 1606.29 90.2131 1611.3 95.0964C1631.35 114.699 1647.53 137.838 1660.73 162.335C1667.24 174.647 1673.05 187.323 1678.13 200.275C1680.62 206.767 1683.05 213.292 1685.2 219.903C1686.33 223.189 1687.33 226.528 1688.36 229.841C1689.39 233.111 1690.38 236.453 1691.35 239.8C1698.96 266.577 1703.68 294.146 1705.56 321.895C1705.76 325.362 1705.98 328.84 1706.1 332.313C1706.16 334.052 1706.23 335.817 1706.36 337.406C1706.5 339.038 1706.51 340.678 1706.8 342.297C1707.58 348.806 1709.22 355.216 1711.61 361.318C1716.44 373.537 1724.33 384.546 1734.37 393.031L1736.24 394.621L1740.2 397.537C1740.86 398.028 1741.57 398.427 1742.26 398.877C1743.64 399.746 1745 400.684 1746.47 401.419C1747.95 402.203 1749.27 402.984 1750.88 403.776C1757.11 406.916 1763.2 410.282 1769.16 413.874C1781.07 421.08 1792.46 429.165 1803.1 438.138C1813.77 447.069 1823.79 456.836 1832.71 467.576C1841.63 478.311 1849.52 489.98 1855.67 502.591C1861.87 515.161 1866.05 528.822 1867.66 542.821C1869.3 556.821 1868.17 571.096 1864.69 584.652C1862.98 591.44 1860.77 598.096 1858.15 604.559C1855.48 611.008 1852.43 617.281 1849.09 623.381C1845.76 629.494 1842.04 635.375 1838.11 641.095C1834.17 646.815 1830.02 652.378 1825.54 657.688C1816.61 668.304 1806.6 678.01 1795.58 686.406C1790.06 690.596 1784.31 694.484 1778.3 697.905C1775.29 699.596 1772.23 701.237 1769.11 702.703L1759.69 706.999L1759.66 707.008L1759.67 706.987C1756.63 708.224 1753.28 708.804 1750.01 708.479C1746.74 708.159 1743.58 706.908 1741.02 704.884C1743.64 706.832 1746.81 707.976 1750.04 708.193C1753.27 708.426 1756.51 707.759 1759.46 706.469L1768.71 701.924C1771.79 700.364 1774.76 698.66 1777.7 696.885C1783.57 693.312 1789.19 689.379 1794.55 685.1C1805.28 676.549 1814.97 666.728 1823.55 656.06C1827.85 650.728 1831.84 645.15 1835.6 639.415C1839.35 633.684 1842.88 627.818 1846.02 621.748C1849.18 615.689 1852.02 609.479 1854.48 603.13C1856.89 596.761 1858.92 590.258 1860.47 583.658C1863.64 570.467 1864.47 556.783 1862.71 543.451C1860.97 530.104 1856.77 517.108 1850.61 505.109C1844.53 493.056 1836.8 481.854 1828.03 471.543C1819.26 461.222 1809.38 451.815 1798.89 443.229C1788.42 434.575 1777.21 426.857 1765.54 419.937C1759.71 416.475 1753.73 413.233 1747.66 410.219C1746.17 409.508 1744.53 408.576 1742.96 407.755C1741.36 406.953 1739.85 405.959 1738.34 405.002C1737.58 404.511 1736.79 404.07 1736.07 403.544L1731.72 400.37L1729.65 398.641C1718.62 389.443 1709.92 377.492 1704.55 364.144C1701.87 357.466 1700.03 350.433 1699.11 343.282C1698.79 341.507 1698.75 339.684 1698.6 337.892C1698.44 336.046 1698.37 334.37 1698.3 332.668C1698.16 329.263 1697.92 325.859 1697.69 322.46C1695.7 295.253 1691.07 268.226 1683.54 242.051C1682.59 238.779 1681.62 235.528 1680.58 232.225C1679.56 228.971 1678.58 225.714 1677.45 222.497C1675.33 216.016 1672.93 209.647 1670.48 203.291C1665.49 190.621 1659.78 178.259 1653.4 166.258C1640.58 142.337 1624.89 119.829 1605.6 100.893C1600.78 96.1757 1595.79 91.6181 1590.52 87.4221C1587.94 85.258 1585.2 83.2923 1582.53 81.2561C1579.75 79.3522 1577.05 77.3513 1574.18 75.5856C1571.38 73.7229 1568.46 72.0498 1565.57 70.3519C1564.11 69.5102 1562.62 68.7569 1561.13 67.9564L1558.92 66.7719L1556.64 65.6801C1550.64 62.6814 1544.39 60.1844 1538.06 57.9863C1525.36 53.7417 1512.13 51.0841 1498.71 50.1883C1492.01 49.6558 1485.27 49.7597 1478.53 50.0021L1468.43 50.7497L1458.39 52.1179C1445.04 54.2919 1431.84 57.6042 1418.93 61.8855C1415.7 62.9466 1412.52 64.1862 1409.32 65.3284L1404.52 67.0742C1402.93 67.694 1401.36 68.3684 1399.79 69.0104L1390.34 72.9313L1381.04 77.2447L1376.4 79.4095C1374.84 80.1163 1373.34 80.9545 1371.82 81.7219L1362.69 86.4072L1360.41 87.5877L1353.69 91.3552L1344.75 96.3918C1338.91 99.9661 1333 103.446 1327.2 107.113L1318.54 112.688C1315.66 114.536 1312.85 116.511 1309.99 118.419C1287.21 133.724 1265.39 150.508 1244.31 168.154C1223.26 185.851 1203 204.51 1183.71 224.151L1172.99 235.327L1162.5 246.736L1152.26 258.355L1148.94 262.301L1142.31 270.21C1138.02 275.643 1133.38 280.763 1129.01 286.063C1126.63 288.989 1124.87 292.473 1124.31 296.241C1123.72 299.981 1124.39 303.938 1126.28 307.264L1126.31 307.239Z" fill="url(#paint1_linear_7_2192)"/>
<path d="M1126.31 307.239C1125.55 305.965 1125.11 304.502 1124.99 303.021C1124.87 301.533 1125.1 300.019 1125.54 298.587C1126.42 295.706 1128.22 293.187 1130.28 291.024L1130.58 290.968L1130.29 291.03C1132.52 288.766 1134.86 286.599 1137.09 284.361C1138.22 283.241 1139.33 282.108 1140.39 280.951C1141.45 279.805 1142.52 278.569 1143.46 277.411L1143.49 277.36L1143.5 277.366L1149.83 270.52L1153.01 267.108L1162.78 257.084L1169.44 250.551L1172.78 247.287L1176.17 244.085L1182.98 237.704L1189.9 231.446C1192.21 229.362 1194.51 227.273 1196.89 225.251C1215.66 208.922 1235.13 193.337 1255.45 178.93C1275.74 164.473 1296.61 150.822 1318.24 138.419C1339.88 126.048 1362.18 114.627 1385.64 105.792L1394.44 102.498L1403.38 99.5587L1407.85 98.1022L1412.39 96.8522C1415.42 96.0351 1418.43 95.1368 1421.48 94.3846C1433.69 91.3979 1446.13 89.271 1458.7 88.126C1483.82 85.9524 1509.6 88.6984 1533.55 97.1284C1557.46 105.583 1579.36 119.2 1598.17 135.962C1607.63 144.306 1616.32 153.457 1624.42 163.089C1632.43 172.78 1639.91 182.919 1646.63 193.524C1653.34 204.129 1659.52 215.07 1665.02 226.333C1666.41 229.14 1667.78 231.973 1669.07 234.822C1670.42 237.659 1671.65 240.536 1672.91 243.395C1674.16 246.258 1675.34 249.201 1676.55 252.041C1677.71 254.84 1678.97 257.804 1680.08 260.712C1689.23 284.119 1695.66 308.558 1699.27 333.396C1699.71 336.504 1700.15 339.612 1700.49 342.736C1700.67 344.332 1700.88 345.787 1701.09 347.242L1701.4 349.438L1701.84 351.614C1703.01 357.411 1704.82 363.096 1707.17 368.557C1711.92 379.467 1718.89 389.411 1727.47 397.619C1731.78 401.71 1736.47 405.409 1741.56 408.455C1746.88 411.68 1752.22 415.102 1757.32 418.725C1767.58 425.977 1777.31 433.996 1786.29 442.754C1795.33 451.457 1803.79 460.775 1811.4 470.773C1819 480.775 1825.81 491.45 1831.22 502.861C1836.61 514.266 1840.67 526.371 1842.8 538.862C1842.94 539.642 1843.11 540.413 1843.22 541.202L1843.5 543.561L1844.04 548.283C1844.23 549.859 1844.22 551.444 1844.32 553.026C1844.37 554.61 1844.49 556.187 1844.5 557.774C1844.54 564.111 1844.03 570.432 1843.12 576.676C1842.23 582.931 1840.82 589.093 1839.07 595.138C1837.33 601.189 1835.23 607.118 1832.8 612.905C1828.01 624.499 1822 635.543 1815.29 646.072C1808.53 656.587 1800.9 666.555 1792.32 675.616C1783.74 684.683 1774.21 692.879 1763.63 699.496L1763.02 699.173L1763.64 699.491L1755.21 704.712C1753.01 705.93 1750.59 706.826 1748.08 706.981C1745.58 707.143 1743 706.48 1741.04 704.922C1743.05 706.408 1745.61 706.985 1748.05 706.745C1750.51 706.517 1752.85 705.564 1754.96 704.309L1763.19 698.847L1763.82 699.166L1763.21 698.843C1773.47 691.904 1782.72 683.569 1791 674.399C1799.27 665.214 1806.58 655.2 1813.01 644.644C1819.4 634.07 1825.04 623.047 1829.47 611.576C1831.72 605.847 1833.63 600.003 1835.18 594.073C1836.73 588.144 1838.03 582.152 1838.78 576.09C1839.53 570.034 1839.94 563.942 1839.8 557.86C1839.76 556.34 1839.63 554.821 1839.54 553.304C1839.42 551.79 1839.41 550.262 1839.21 548.76L1838.6 544.247L1838.3 541.988C1838.19 541.236 1838.01 540.502 1837.86 539.759C1835.61 527.819 1831.51 516.266 1826.12 505.356C1820.77 494.416 1814.05 484.152 1806.54 474.527C1799.02 464.902 1790.67 455.921 1781.75 447.544C1772.89 439.118 1763.32 431.464 1753.29 424.508C1748.27 421.008 1743.14 417.768 1737.85 414.619C1732.28 411.337 1727.14 407.367 1722.44 402.965C1713.06 394.131 1705.45 383.446 1700.2 371.645C1697.6 365.738 1695.58 359.561 1694.24 353.211L1693.74 350.834L1693.37 348.428C1693.13 346.816 1692.89 345.195 1692.7 343.714C1692.32 340.669 1691.9 337.636 1691.44 334.596C1687.75 310.35 1681.47 286.489 1672.49 263.715C1671.38 260.84 1670.2 258.098 1668.99 255.173C1667.77 252.302 1666.63 249.488 1665.39 246.674C1664.15 243.87 1662.93 241.051 1661.61 238.285C1660.33 235.5 1659 232.739 1657.64 229.992C1652.22 218.995 1646.17 208.323 1639.6 198.009C1633.04 187.674 1625.83 177.785 1618.07 168.374C1610.23 159.019 1601.86 150.131 1592.74 142.068C1574.62 125.841 1553.67 112.77 1530.85 104.635C1508.06 96.4434 1483.52 93.6159 1459.24 95.5092C1447.1 96.52 1435.03 98.4874 1423.11 101.31C1420.12 102.018 1417.18 102.872 1414.23 103.652L1409.79 104.839L1405.4 106.214L1396.61 108.982L1387.94 112.102C1364.81 120.483 1342.64 131.486 1321.04 143.481C1310.22 149.483 1299.6 155.815 1289.08 162.329C1283.86 165.648 1278.59 168.904 1273.44 172.343L1265.7 177.456L1258.03 182.696C1217.29 210.822 1178.65 242.304 1144.32 278.18L1144.35 278.118C1143.27 279.401 1142.22 280.537 1141.08 281.695C1139.96 282.832 1138.81 283.941 1137.65 285.028C1135.33 287.201 1132.93 289.291 1130.63 291.476L1130.34 291.539L1130.64 291.482C1128.57 293.537 1126.73 295.936 1125.78 298.739C1125.31 300.127 1125.03 301.602 1125.11 303.076C1125.18 304.544 1125.57 306.004 1126.28 307.307L1126.31 307.239Z" fill="url(#paint2_linear_7_2192)"/>
<path d="M1126.31 307.239C1125.74 306.296 1125.7 305.107 1125.97 304.052C1126.23 302.982 1126.76 301.996 1127.38 301.09C1128.64 299.28 1130.28 297.769 1132.01 296.434C1134.33 294.739 1136.74 293.161 1139 291.436C1140.15 290.572 1141.25 289.684 1142.31 288.73C1143.35 287.806 1144.4 286.739 1145.26 285.768L1145.33 285.687C1149.58 281.838 1153.75 277.873 1158.14 274.176L1164.67 268.555L1171.32 263.086L1174.65 260.354L1184.8 252.375L1191.68 247.19C1193.97 245.451 1196.27 243.745 1198.61 242.078C1217.21 228.597 1236.39 215.906 1256.21 204.27C1275.98 192.567 1296.23 181.658 1316.95 171.682C1327.29 166.669 1337.85 161.999 1348.48 157.584C1351.15 156.5 1353.85 155.493 1356.54 154.438C1359.24 153.415 1361.9 152.299 1364.64 151.385C1370.09 149.481 1375.51 147.5 1381.05 145.867C1403.07 138.889 1425.94 134.167 1449.17 132.834C1460.78 132.08 1472.47 132.485 1484.06 133.769L1488.4 134.258C1489.85 134.407 1491.29 134.716 1492.72 134.938L1497.04 135.661L1499.19 136.027C1499.91 136.155 1500.61 136.34 1501.33 136.494C1504.17 137.145 1507.04 137.755 1509.87 138.444L1518.27 140.892C1519.67 141.315 1521.09 141.68 1522.47 142.16L1526.57 143.68C1529.3 144.708 1532.06 145.669 1534.76 146.759L1542.75 150.327C1544.06 150.947 1545.43 151.464 1546.71 152.162L1550.58 154.189C1561.02 159.392 1570.74 165.873 1580.19 172.63C1598.81 186.565 1615.56 202.897 1630 221.01C1637.36 229.965 1643.93 239.523 1650.33 249.152L1657.2 260.202L1659.36 263.96L1663.66 271.484L1665.77 275.159C1666.5 276.415 1667.21 277.692 1667.9 278.968C1679.01 299.386 1687.41 321.248 1692.95 343.787L1693.96 348.026L1694.9 352.286C1695.21 353.742 1695.53 355.012 1695.84 356.371C1696.12 357.713 1696.52 359.03 1696.9 360.346C1698.43 365.627 1700.43 370.775 1702.81 375.759C1707.59 385.712 1713.99 394.915 1721.57 402.93C1725.37 406.933 1729.49 410.63 1733.92 413.888C1738.55 417.301 1743.16 420.909 1747.54 424.691C1756.34 432.267 1764.55 440.538 1772.04 449.379C1779.56 458.158 1786.58 467.396 1792.87 477.141C1799.17 486.869 1804.76 497.099 1809.21 507.853C1813.66 518.591 1817.04 529.835 1818.92 541.343L1819.3 543.495C1819.4 544.214 1819.47 544.942 1819.56 545.666L1820.06 550.018C1820.26 551.467 1820.27 552.926 1820.37 554.385L1820.6 558.758C1820.72 564.594 1820.46 570.419 1819.88 576.203C1818.64 587.777 1815.97 599.139 1812.32 610.114C1810.51 615.608 1808.42 621.005 1806.14 626.306C1803.87 631.613 1801.42 636.839 1798.75 641.947C1793.47 652.187 1787.49 662.077 1780.65 671.353C1773.83 680.618 1766.1 689.266 1757.25 696.64L1757.37 696.375L1757.26 696.63L1750.77 702.327C1749.38 703.465 1747.89 704.484 1746.21 705.12C1745.37 705.433 1744.49 705.652 1743.6 705.642C1742.7 705.659 1741.8 705.404 1741.1 704.846C1741.82 705.373 1742.72 705.591 1743.6 705.546C1744.48 705.518 1745.34 705.277 1746.15 704.946C1747.77 704.264 1749.21 703.199 1750.52 702.036L1756.81 696.125L1756.71 696.379L1756.82 696.114C1761.07 692.298 1765.05 688.183 1768.77 683.85C1772.51 679.54 1776 675.007 1779.26 670.329C1785.79 660.971 1791.46 651.026 1796.42 640.767C1806.33 620.265 1813.6 598.318 1815.57 575.79C1816.04 570.169 1816.17 564.534 1815.95 558.916L1815.65 554.709C1815.53 553.307 1815.51 551.906 1815.28 550.514L1814.73 546.335C1814.64 545.637 1814.56 544.946 1814.44 544.247L1814.05 542.18C1812.02 531.127 1808.57 520.363 1804.07 510.048C1799.6 499.724 1794.06 489.853 1787.8 480.473C1781.55 471.082 1774.58 462.161 1767.1 453.683C1759.69 445.161 1751.63 437.292 1743.02 430.041C1738.71 426.402 1734.29 422.996 1729.7 419.66C1724.89 416.183 1720.44 412.243 1716.33 407.987C1708.13 399.467 1701.24 389.719 1696.01 379.085C1693.42 373.769 1691.22 368.242 1689.51 362.536C1689.09 361.111 1688.65 359.691 1688.33 358.229C1687.98 356.793 1687.6 355.296 1687.31 353.948L1686.37 349.82L1685.35 345.715C1679.8 323.84 1671.66 302.611 1660.82 282.874C1660.16 281.637 1659.47 280.415 1658.76 279.197L1656.59 275.433L1652.35 268.083L1650.23 264.402L1647.99 260.799L1643.49 253.604C1637.21 244.212 1630.77 234.896 1623.58 226.2C1609.54 208.537 1593.34 192.647 1575.39 179.14C1566.29 172.584 1556.94 166.317 1546.91 161.298L1543.2 159.334C1541.98 158.655 1540.66 158.157 1539.39 157.561L1531.73 154.113C1529.14 153.056 1526.5 152.134 1523.88 151.134L1519.96 149.662C1518.63 149.201 1517.28 148.845 1515.94 148.431L1507.91 146.015C1505.2 145.329 1502.47 144.726 1499.75 144.076C1499.07 143.92 1498.39 143.746 1497.7 143.61L1495.64 143.244L1491.5 142.516C1490.13 142.297 1488.76 141.987 1487.36 141.825L1483.19 141.324C1472.06 140.01 1460.81 139.523 1449.57 140.161C1427.08 141.25 1404.75 145.722 1383.03 152.227C1377.58 153.759 1372.2 155.641 1366.83 157.438C1364.13 158.296 1361.49 159.365 1358.82 160.337C1356.16 161.341 1353.48 162.296 1350.83 163.333C1340.26 167.555 1329.79 172.012 1319.46 176.85C1309.09 181.627 1298.85 186.673 1288.67 191.844C1278.53 197.114 1268.43 202.445 1258.52 208.132C1218.78 230.643 1180.57 256.193 1146.09 286.387L1146.17 286.306C1145.09 287.456 1144.08 288.382 1142.94 289.331C1141.83 290.267 1140.68 291.125 1139.5 291.955C1137.14 293.616 1134.69 295.111 1132.33 296.713C1130.57 297.978 1128.91 299.408 1127.61 301.141C1126.98 302.015 1126.42 302.966 1126.12 304.003C1125.82 305.033 1125.81 306.199 1126.34 307.162L1126.31 307.239Z" fill="url(#paint3_linear_7_2192)"/>
<path d="M1126.31 307.239C1126.22 307.054 1126.34 306.848 1126.45 306.689C1126.55 306.514 1126.69 306.373 1126.82 306.232C1127.09 305.95 1127.39 305.696 1127.7 305.448C1128.31 304.951 1128.96 304.516 1129.63 304.092C1130.96 303.255 1132.35 302.516 1133.76 301.822C1138.48 299.646 1142.97 297.009 1147.2 294.01L1147.07 294.131L1147.17 294.025C1164.1 281.255 1181.94 269.699 1200.32 259.128C1218.7 248.54 1237.56 238.737 1256.83 229.874C1276.07 220.939 1295.65 212.723 1315.49 205.175C1320.43 203.252 1325.46 201.498 1330.46 199.689C1332.95 198.766 1335.49 197.968 1338.01 197.115L1345.58 194.612L1353.23 192.299L1357.05 191.139L1360.9 190.083L1368.61 187.987L1376.39 186.108L1380.29 185.171L1392.04 182.733C1397.32 181.85 1402.56 180.812 1407.87 180.188C1410.53 179.854 1413.16 179.413 1415.83 179.181L1423.82 178.4C1426.48 178.152 1429.16 178.065 1431.84 177.882L1435.86 177.66L1439.89 177.583L1443.91 177.517C1445.24 177.478 1446.59 177.472 1447.93 177.519L1455.98 177.705C1461.34 178.042 1466.71 178.309 1472.03 178.995L1476.03 179.438C1477.37 179.591 1478.69 179.844 1480.02 180.04C1482.68 180.489 1485.34 180.806 1487.98 181.365L1495.88 182.991C1498.49 183.634 1501.09 184.335 1503.7 185.005L1507.6 186.022C1508.9 186.376 1510.16 186.828 1511.45 187.228L1519.11 189.718C1521.65 190.607 1524.14 191.632 1526.65 192.583C1529.15 193.55 1531.68 194.487 1534.11 195.641L1541.46 198.937C1543.89 200.071 1546.25 201.348 1548.65 202.554C1553.48 204.893 1558.05 207.722 1562.73 210.356C1571.85 215.992 1580.83 221.902 1589.23 228.55C1593.53 231.736 1597.55 235.278 1601.69 238.684C1603.73 240.422 1605.68 242.251 1607.68 244.034C1609.67 245.828 1611.67 247.601 1613.55 249.501L1619.29 255.103C1621.18 256.992 1622.99 258.956 1624.84 260.891C1628.59 264.705 1632.04 268.783 1635.62 272.757C1637.37 274.771 1639.05 276.85 1640.77 278.889C1642.49 280.939 1644.2 282.982 1645.82 285.111L1655.63 297.655C1668.65 314.821 1679.05 333.926 1686.56 354.074L1687.94 357.866L1689.24 361.679C1690.11 364.184 1690.89 366.546 1691.86 368.945C1693.74 373.708 1695.91 378.382 1698.33 382.921C1703.17 392.016 1709.03 400.564 1715.68 408.423C1719.01 412.351 1722.55 416.083 1726.34 419.548C1730.25 423.153 1734.14 426.948 1737.78 430.878C1745.09 438.76 1751.76 447.265 1757.69 456.152C1763.67 464.989 1769.23 474.132 1774.22 483.586C1779.2 493.041 1783.62 502.84 1787.17 512.96C1790.71 523.081 1793.43 533.52 1795.06 544.15C1796.72 554.788 1797.1 565.595 1796.45 576.299C1795.07 597.756 1789.37 618.585 1781.72 638.401C1777.87 648.315 1773.54 658.047 1768.5 667.412C1763.48 676.783 1757.69 685.769 1750.81 693.882L1750.88 693.699L1750.82 693.872L1746.26 700.055C1745.55 701.046 1744.8 701.997 1743.99 702.902C1743.58 703.352 1743.15 703.79 1742.69 704.183C1742.46 704.383 1742.21 704.565 1741.95 704.72C1741.69 704.86 1741.39 705.055 1741.11 704.905C1741.4 705.044 1741.7 704.833 1741.94 704.698C1742.19 704.527 1742.42 704.333 1742.65 704.133C1743.09 703.728 1743.5 703.278 1743.89 702.817C1744.66 701.888 1745.38 700.903 1746.04 699.898L1750.37 693.531L1750.31 693.703L1750.38 693.521C1756.89 685.184 1762.28 676.063 1767.04 666.65C1771.77 657.219 1775.8 647.448 1779.33 637.515C1786.38 617.67 1791.31 596.986 1792.17 576.079C1792.59 565.638 1792.01 555.197 1790.19 544.95C1788.41 534.699 1785.56 524.635 1781.93 514.877C1774.68 495.314 1764.26 477.012 1752.31 459.871C1746.39 451.267 1739.85 443.206 1732.7 435.684C1729.13 431.907 1725.42 428.341 1721.54 424.823C1717.51 421.189 1713.73 417.278 1710.19 413.173C1703.11 404.969 1696.88 396.048 1691.71 386.524C1689.12 381.762 1686.78 376.854 1684.74 371.805C1683.7 369.311 1682.79 366.66 1681.91 364.186L1680.61 360.511L1679.24 356.864C1671.83 337.456 1661.8 319.039 1649.22 302.574L1639.46 290.188C1637.87 288.114 1636.19 286.115 1634.51 284.116C1632.83 282.127 1631.18 280.092 1629.46 278.122C1625.95 274.259 1622.56 270.27 1618.9 266.562C1617.08 264.688 1615.31 262.774 1613.45 260.935L1607.84 255.483C1605.99 253.634 1604.05 251.907 1602.12 250.148C1600.18 248.411 1598.29 246.617 1596.31 244.925C1592.3 241.607 1588.4 238.136 1584.22 235.037C1576.07 228.548 1567.39 222.794 1558.57 217.303C1554.05 214.748 1549.64 211.981 1544.96 209.72C1542.64 208.546 1540.36 207.299 1538.01 206.203L1530.92 203.002C1528.58 201.885 1526.16 200.965 1523.74 200.035C1521.31 199.115 1518.92 198.117 1516.47 197.255L1509.09 194.829C1507.85 194.442 1506.63 193.987 1505.39 193.653L1494.12 190.648L1486.52 189.019C1483.99 188.466 1481.4 188.128 1478.86 187.675C1477.58 187.472 1476.31 187.216 1475.01 187.06L1471.15 186.598C1466 185.88 1460.81 185.585 1455.63 185.217L1447.83 184.971C1446.53 184.905 1445.23 184.914 1443.92 184.938L1436.1 185.01L1432.2 185.201C1429.6 185.346 1427 185.422 1424.39 185.636L1416.59 186.322C1413.99 186.52 1411.41 186.938 1408.81 187.238C1403.62 187.811 1398.48 188.78 1393.29 189.551L1385.58 191.029L1381.73 191.782L1377.89 192.642L1370.22 194.379L1362.6 196.337L1358.79 197.321L1355 198.402L1347.43 200.576L1339.9 202.933C1337.4 203.739 1334.88 204.479 1332.41 205.372C1327.43 207.086 1322.45 208.742 1317.5 210.59C1307.56 214.147 1297.71 217.922 1287.9 221.768C1278.11 225.701 1268.34 229.699 1258.7 233.987C1220.05 250.898 1182.38 270.476 1147.76 294.815L1147.86 294.71L1147.74 294.83C1143.36 297.697 1138.73 300.188 1133.9 302.193C1132.47 302.822 1131.07 303.512 1129.71 304.288C1129.03 304.68 1128.37 305.093 1127.74 305.557C1127.43 305.789 1127.13 306.037 1126.85 306.303C1126.71 306.444 1126.58 306.585 1126.46 306.737C1126.36 306.896 1126.22 307.08 1126.3 307.276L1126.31 307.239Z" fill="url(#paint4_linear_7_2192)"/>
<path d="M1126.31 307.239C1126.77 307.932 1127.67 308.028 1128.44 308.083C1129.22 308.124 1130.02 308.065 1130.81 307.983C1132.38 307.81 1133.94 307.502 1135.49 307.189L1135.6 307.195L1135.5 307.179C1140.25 306.308 1144.8 304.569 1149.03 302.289L1148.85 302.449L1149.02 302.31C1166.07 292.513 1183.84 283.949 1201.97 276.28C1220.1 268.595 1238.55 261.691 1257.26 255.562C1275.95 249.385 1294.84 243.815 1313.84 238.737C1332.86 233.601 1352.2 229.389 1371.75 226.424C1391.3 223.502 1411.11 221.926 1430.97 222.285C1440.88 222.464 1450.81 223.021 1460.68 224.23C1461.91 224.377 1463.16 224.493 1464.39 224.656L1468.08 225.192C1470.54 225.581 1473.01 225.855 1475.45 226.344L1482.79 227.697L1490.07 229.333C1509.48 233.76 1528.26 240.619 1546.27 248.971C1548.55 249.957 1550.74 251.14 1552.96 252.218C1555.17 253.343 1557.43 254.397 1559.6 255.584C1563.95 257.959 1568.35 260.267 1572.59 262.837C1581.19 267.798 1589.48 273.258 1597.6 278.92C1601.61 281.829 1605.65 284.696 1609.55 287.757C1613.51 290.732 1617.33 293.884 1621.17 297.006C1623.09 298.556 1624.94 300.214 1626.83 301.81C1628.71 303.417 1630.6 305.019 1632.42 306.685L1643.41 316.563C1658.11 330.224 1670.49 346.32 1679.99 363.956L1681.75 367.264L1683.42 370.62C1684.54 372.842 1685.55 374.967 1686.7 377.111C1688.92 381.388 1691.29 385.61 1693.75 389.774C1698.68 398.086 1704.08 406.149 1709.86 413.904C1712.75 417.785 1715.75 421.576 1718.86 425.267C1722.06 429.064 1725.18 433.032 1728.06 437.098C1733.84 445.253 1738.92 453.951 1743.26 462.857C1752.06 480.553 1759.73 498.906 1765.11 518.045C1767.78 527.603 1769.89 537.346 1771.24 547.189C1772.62 557.049 1773.14 567.012 1772.97 576.935C1772.57 596.805 1769.14 616.421 1764.34 635.531C1761.91 645.088 1759.2 654.574 1755.98 663.892C1752.78 673.216 1749.04 682.37 1744.4 691.072L1744.43 690.925L1744.4 691.062C1743.37 693.21 1742.47 695.435 1741.78 697.726C1741.4 698.912 1741.04 700.105 1740.8 701.32C1740.68 701.925 1740.57 702.547 1740.56 703.158C1740.55 703.76 1740.59 704.454 1741.08 704.877C1740.58 704.474 1740.5 703.773 1740.49 703.16C1740.48 702.536 1740.55 701.907 1740.65 701.29C1740.86 700.051 1741.16 698.84 1741.48 697.64C1742.09 695.312 1742.9 693.023 1743.87 690.806L1743.84 690.943L1743.87 690.796C1752.26 673.042 1757.58 654.037 1761.83 634.937C1766.05 615.819 1768.75 596.356 1768.67 576.895C1768.62 567.178 1767.9 557.479 1766.34 547.917C1764.81 538.341 1762.55 528.898 1759.73 519.608C1754.15 501.011 1746.36 483.114 1737.42 465.83C1733.03 457.172 1728.05 448.969 1722.37 441.187C1719.54 437.289 1716.57 433.553 1713.41 429.891C1710.17 426.123 1707.04 422.245 1704.04 418.299C1698.02 410.392 1692.41 402.184 1687.25 393.682C1684.66 389.431 1682.2 385.113 1679.86 380.711C1678.68 378.534 1677.56 376.253 1676.44 374.101L1674.8 370.901L1673.08 367.739C1663.82 350.916 1651.99 335.501 1637.9 322.536L1626.98 312.801C1625.19 311.163 1623.33 309.605 1621.48 308.033C1619.62 306.475 1617.81 304.857 1615.92 303.351C1612.14 300.308 1608.4 297.223 1604.51 294.333C1600.69 291.346 1596.72 288.563 1592.79 285.728C1584.84 280.203 1576.77 274.805 1568.4 269.958C1564.27 267.437 1559.99 265.183 1555.74 262.841C1553.62 261.673 1551.44 260.645 1549.28 259.539C1547.11 258.464 1544.98 257.317 1542.78 256.346C1525.26 248.156 1507.03 241.446 1488.21 237.076L1481.16 235.421L1474.04 234.044C1471.68 233.543 1469.28 233.258 1466.9 232.857L1463.32 232.301C1462.12 232.129 1460.92 232 1459.72 231.854C1450.13 230.577 1440.45 229.944 1430.78 229.683C1421.08 229.374 1411.38 229.66 1401.68 230.24C1391.98 230.776 1382.3 231.846 1372.66 233.073C1353.35 235.695 1334.21 239.541 1315.26 244.346C1296.25 249.051 1277.33 254.134 1258.61 259.884L1251.58 262.047L1244.59 264.298C1239.91 265.758 1235.29 267.36 1230.64 268.885C1221.38 272.093 1212.14 275.356 1203.03 278.951C1184.74 285.993 1166.86 294.092 1149.49 303.2L1149.65 303.061L1149.48 303.221C1145.08 305.363 1140.39 306.929 1135.56 307.614C1133.99 307.872 1132.41 308.099 1130.82 308.223C1130.02 308.273 1129.22 308.305 1128.42 308.226C1127.66 308.144 1126.74 308 1126.3 307.293L1126.31 307.239Z" fill="url(#paint5_linear_7_2192)"/>
<path d="M1126.31 307.239C1127.42 309.051 1129.32 310.148 1131.25 310.863C1132.23 311.234 1133.23 311.522 1134.24 311.778C1135.27 312.041 1136.25 312.264 1137.31 312.507L1137.26 312.478C1141.86 312.924 1146.52 312.128 1150.84 310.53L1150.56 310.737L1150.82 310.534C1167.99 303.863 1185.59 298.286 1203.39 293.521C1221.19 288.723 1239.18 284.666 1257.29 281.238C1275.39 277.783 1293.57 274.839 1311.83 272.309C1330.08 269.737 1348.49 267.897 1366.94 266.912C1376.17 266.433 1385.42 266.184 1394.67 266.195C1403.91 266.26 1413.16 266.495 1422.41 267.045C1440.89 268.185 1459.33 270.292 1477.57 273.914C1479.86 274.331 1482.11 274.837 1484.38 275.364L1491.17 276.908L1497.9 278.64C1500.15 279.209 1502.4 279.793 1504.62 280.456L1511.29 282.377C1513.52 283.029 1515.71 283.76 1517.93 284.449C1522.36 285.801 1526.72 287.357 1531.11 288.86C1548.57 295.04 1565.64 302.246 1582.34 310.116C1590.68 314.083 1598.93 318.215 1607.12 322.434C1611.2 324.569 1615.3 326.689 1619.35 328.875L1625.46 332.157C1627.56 333.383 1629.55 334.522 1631.55 335.8C1647.53 345.805 1661.67 358.678 1673.14 373.593C1674.56 375.46 1675.97 377.342 1677.32 379.274C1678.69 381.191 1679.96 383.065 1681.27 384.973L1689.02 396.411C1694.15 404.064 1699.19 411.781 1704.14 419.541C1706.62 423.429 1709.08 427.321 1711.51 431.238C1713.99 435.222 1716.3 439.329 1718.41 443.515C1722.64 451.887 1726.09 460.713 1728.82 469.583C1734.45 487.177 1739.41 505.019 1743.1 523.17C1746.76 541.32 1749.09 559.811 1749.55 578.326C1750.08 596.85 1748.88 615.336 1746.94 633.666C1745.95 642.834 1744.8 651.986 1743.4 661.102C1742 670.218 1740.32 679.296 1738.05 688.244C1737.53 690.577 1737.26 692.978 1737.34 695.373L1737.34 695.33C1737.5 696.218 1737.64 697.057 1737.81 697.924C1737.99 698.781 1738.17 699.627 1738.43 700.462C1738.92 702.12 1739.71 703.752 1741.08 704.861C1739.65 703.819 1738.79 702.192 1738.21 700.529C1737.92 699.703 1737.69 698.854 1737.49 697.995C1737.28 697.147 1737.09 696.268 1736.9 695.448L1736.89 695.416C1736.72 692.968 1736.88 690.507 1737.32 688.095C1740.93 670.07 1742.9 651.768 1744.27 633.462C1745.66 615.152 1746.13 596.793 1745.19 578.538C1744.3 560.275 1741.6 542.198 1737.56 524.383C1733.62 506.553 1728.43 489 1722.56 471.679C1719.73 463.017 1716.31 454.751 1712.15 446.761C1710.08 442.769 1707.84 438.879 1705.43 435.086C1702.98 431.226 1700.49 427.375 1698 423.544C1692.99 415.877 1687.9 408.258 1682.73 400.698L1674.92 389.406C1672.26 385.636 1669.71 381.951 1666.93 378.449C1655.88 364.342 1642.44 352.123 1627.26 342.697C1625.39 341.496 1623.39 340.383 1621.53 339.294L1615.5 336.075C1611.46 333.921 1607.4 331.835 1603.34 329.728C1595.21 325.566 1587.03 321.502 1578.77 317.615C1562.28 309.81 1545.51 302.637 1528.37 296.519C1524.07 295.036 1519.79 293.486 1515.45 292.15C1513.29 291.464 1511.13 290.741 1508.95 290.096L1502.41 288.189C1500.23 287.523 1498.04 286.958 1495.84 286.386L1489.25 284.668L1482.61 283.144C1480.41 282.625 1478.19 282.128 1475.96 281.703C1440.38 274.34 1403.68 272.32 1367.22 273.619C1348.97 274.297 1330.74 275.801 1312.55 278.053C1294.34 280.24 1276.16 282.678 1258.08 285.719C1221.93 291.758 1185.92 299.44 1151.22 311.585L1151.48 311.382L1151.2 311.589C1146.69 313.048 1141.86 313.653 1137.17 313.005L1137.16 312.999L1137.11 312.996C1136.15 312.742 1135.1 312.452 1134.11 312.154C1133.1 311.85 1132.1 311.503 1131.13 311.095C1129.2 310.295 1127.32 309.088 1126.29 307.228L1126.31 307.239Z" fill="url(#paint6_linear_7_2192)"/>
<path d="M1126.31 307.239C1128.74 311.2 1132.24 314.466 1136.31 316.568C1140.38 318.697 1145.02 319.583 1149.54 319.157C1150.67 319.096 1151.78 318.857 1152.91 318.684L1176.98 314.404C1186.21 313.169 1195.43 311.848 1204.68 310.711L1225.55 308.686C1227.87 308.476 1230.18 308.192 1232.51 308.078C1269.68 305.379 1307.02 305.052 1344.25 306.72C1418.69 310.093 1492.91 320.309 1565.26 338.725L1585.54 344.16L1592.24 346.215L1605.63 350.309L1612.33 352.364C1614.55 353.128 1616.81 353.99 1619.04 354.797L1622.4 356.039C1623.52 356.45 1624.59 356.997 1625.68 357.467L1632.21 360.411C1634.33 361.499 1636.41 362.66 1638.52 363.779L1641.67 365.476L1644.7 367.39C1646.71 368.674 1648.75 369.917 1650.73 371.242L1656.5 375.478C1657.45 376.204 1658.46 376.855 1659.34 377.641L1662.07 379.958L1664.79 382.284C1665.7 383.067 1666.62 383.808 1667.45 384.671L1672.56 389.677L1673.83 390.934L1677.4 394.928C1680.67 398.4 1683.47 402.264 1686.41 406.009C1687.83 407.913 1689.09 409.947 1690.44 411.905L1692.44 414.87C1693.08 415.872 1693.65 416.927 1694.25 417.947L1697.82 424.14L1700.96 430.553C1701.47 431.632 1702.03 432.682 1702.49 433.774L1703.84 437.079C1704.72 439.286 1705.69 441.468 1706.49 443.713C1707.94 448.243 1709.61 452.712 1710.64 457.366L1711.51 460.835C1711.8 461.991 1712.11 463.143 1712.29 464.32L1713.54 471.346C1714.01 473.699 1714.25 475.981 1714.6 478.296L1715.57 485.215C1720.68 522.128 1724.7 559.185 1727.63 596.338C1729.01 614.918 1730.15 633.514 1730.91 652.122C1731.27 661.432 1731.58 670.739 1731.71 680.051C1731.74 682.364 1731.71 684.736 1731.81 687.005C1731.96 689.286 1732.42 691.544 1733.18 693.713C1734.7 698.05 1737.49 701.951 1741.1 704.872C1737.37 702.114 1734.36 698.307 1732.6 693.939C1731.72 691.758 1731.14 689.446 1730.89 687.089C1730.67 684.712 1730.61 682.425 1730.47 680.09C1730.02 670.796 1729.41 661.525 1728.73 652.249C1727.34 633.706 1725.6 615.196 1723.59 596.713C1721.65 578.223 1719.47 559.761 1717.03 541.343C1714.59 522.925 1712.03 504.522 1709.17 486.158L1708.09 479.276C1707.71 476.996 1707.42 474.648 1706.94 472.448L1705.63 465.759C1705.44 464.635 1705.12 463.547 1704.82 462.454L1703.93 459.165C1702.88 454.744 1701.26 450.496 1699.83 446.196C1699.06 444.064 1698.1 442.001 1697.25 439.901L1695.93 436.768C1695.48 435.725 1694.93 434.734 1694.43 433.72L1691.38 427.648L1687.93 421.797C1687.34 420.825 1686.8 419.841 1686.19 418.884L1684.26 416.082C1682.96 414.233 1681.74 412.32 1680.37 410.514C1677.54 406.983 1674.85 403.344 1671.71 400.087L1669.42 397.573L1668.28 396.325L1662.17 390.461C1661.38 389.648 1660.49 388.957 1659.63 388.225L1657.02 386.049L1654.43 383.868C1653.59 383.121 1652.63 382.511 1651.74 381.83L1646.27 377.836C1644.38 376.596 1642.46 375.429 1640.54 374.214L1637.68 372.412L1634.7 370.826C1632.71 369.772 1630.72 368.681 1628.72 367.647L1622.53 364.888C1621.5 364.444 1620.49 363.927 1619.42 363.545L1616.24 362.394C1614.11 361.63 1612.02 360.836 1609.86 360.097L1583.33 352.085L1576.63 350.301L1563.23 346.75C1527.44 337.432 1491.05 330.357 1454.45 324.834C1417.85 319.242 1380.96 315.475 1343.97 313.15C1306.98 310.932 1269.87 310.372 1232.82 312.1C1230.5 312.133 1228.19 312.338 1225.87 312.468L1205.05 313.793C1195.81 314.623 1186.59 315.614 1177.36 316.545L1153.24 320.013C1152.06 320.146 1150.88 320.369 1149.69 320.369C1144.94 320.606 1140.15 319.445 1136.08 317.082C1132 314.739 1128.64 311.263 1126.37 307.206L1126.31 307.239Z" fill="url(#paint7_linear_7_2192)"/>
<path d="M497.716 513.766C501.547 514.23 505.461 513.813 509.078 512.54C512.695 511.279 515.992 509.161 518.673 506.436C523.855 500.772 528.599 494.643 532.893 488.265C541.515 475.509 548.477 461.646 553.6 447.153C558.759 432.66 562.222 417.607 563.93 402.328C564.808 394.701 565.353 387.038 565.389 379.374C565.413 371.711 564.997 364.06 564.049 356.48C562.234 341.332 558.048 326.446 551.027 313.059C544.017 299.673 533.924 288.035 521.958 278.825C510.003 269.579 496.412 262.523 482.203 257.24C467.96 251.992 453.075 248.505 438.013 246.352C422.939 244.245 407.664 243.436 392.436 243.829C384.822 243.996 377.207 244.472 369.617 245.233C365.798 245.554 362.086 246.102 358.22 246.518C356.215 246.697 354.211 246.935 352.195 247.042C350.179 247.066 348.162 247.137 346.146 247.125C330.005 246.768 314.018 241.413 300.841 232.013C294.247 227.325 288.341 221.661 283.395 215.235C282.15 213.64 281.047 211.939 279.861 210.285C278.723 208.607 277.762 206.822 276.706 205.097C274.726 201.67 272.923 198.385 271.026 195.03C255.75 168.459 238.209 143.149 218.095 120.064C198.028 96.9554 175.66 75.8103 150.991 57.8542C126.37 39.9099 99.3294 25.0477 70.3793 16.0161C55.9221 11.5181 41.0141 8.51947 25.9876 7.47233L23.1649 7.27004L21.7536 7.16295L20.3423 7.13915L14.6969 7.05586L11.8743 7.00826L3.41814 7.40094L2.00681 7.46043L-7.78949 8.54327L-16.1152 10.0069L-17.5028 10.2568L-18.8667 10.6019C-33.5255 13.8266 -47.627 19.4431 -60.7085 26.9516C-73.7781 34.46 -85.9108 43.7177 -96.8219 54.2844L-98.9093 56.212L-100.89 58.2706L-104.851 62.3759C-106.168 63.7443 -107.508 65.1009 -108.8 66.4931L-116.272 75.1558L-118.134 77.3215C-118.739 78.0592 -119.308 78.8208 -119.901 79.5824L-126.922 88.6378C-128.132 90.1133 -129.164 91.7316 -130.279 93.2785L-136.873 102.679C-137.976 104.25 -138.948 105.892 -139.992 107.498L-146.171 117.196C-148.175 120.469 -150.037 123.824 -151.982 127.132C-159.739 140.376 -166.582 154.156 -173.212 168.042C-179.628 182.024 -185.736 196.16 -191.191 210.558C-194.05 217.71 -196.576 224.992 -199.197 232.239C-200.537 235.856 -201.687 239.533 -202.933 243.175C-204.142 246.84 -205.411 250.481 -206.574 254.158L-211.709 270.721L-216.489 287.404C-217.532 291.117 -218.469 294.865 -219.489 298.578C-223.533 313.476 -226.997 328.517 -230.317 343.593C-233.425 358.717 -236.39 373.877 -238.714 389.156C-241.228 404.399 -243.007 419.749 -244.644 435.123L-245.652 446.665C-245.901 450.521 -246.601 454.376 -246.091 458.16C-245.664 461.956 -244.3 465.645 -242.189 468.846C-240.078 472.058 -237.184 474.736 -233.875 476.711C-237.232 474.819 -240.22 472.213 -242.45 469.024C-244.68 465.847 -246.174 462.122 -246.72 458.243C-247.04 456.316 -247.04 454.328 -246.945 452.389L-246.601 446.594L-245.901 435.004L-244.371 417.655L-243.731 411.883L-242.426 400.341C-241.964 396.498 -241.406 392.666 -240.896 388.823C-238.868 373.46 -236.212 358.205 -233.389 342.962C-230.365 327.767 -227.198 312.595 -223.439 297.555C-222.502 293.794 -221.6 290.022 -220.616 286.274L-217.568 275.053L-216.05 269.436L-211.128 252.694C-210.013 248.981 -208.792 245.305 -207.629 241.604C-206.431 237.915 -205.328 234.191 -204.036 230.537C-201.51 223.207 -199.055 215.842 -196.291 208.595C-185.582 179.465 -172.868 151.014 -157.616 123.872C-155.683 120.492 -153.821 117.077 -151.828 113.733L-145.649 103.809C-144.606 102.167 -143.621 100.478 -142.53 98.8712L-135.912 89.2327C-134.786 87.6382 -133.754 85.9842 -132.532 84.4611L-125.428 75.1439C-124.835 74.3704 -124.254 73.5851 -123.637 72.8235L-121.74 70.5864L-114.126 61.6619C-112.797 60.2221 -111.433 58.818 -110.081 57.402L-106.025 53.1539L-103.997 51.0239L-101.851 49.0129C-90.6548 38.0299 -78.1189 28.32 -64.4799 20.3712C-50.8529 12.4344 -36.0161 6.41329 -20.5745 2.90298L-19.1395 2.53411L-17.6807 2.26042L-14.7631 1.72495L-8.92804 0.665908L1.37823 -0.500228L11.7319 -1L20.6032 -0.892906L22.0857 -0.869107L26.5094 -0.547825C42.2475 0.511217 57.7722 3.60505 72.7631 8.24579C102.792 17.5511 130.616 32.7822 155.854 51.1191C181.08 69.5631 203.827 91.1723 224.214 114.733C234.402 126.525 244.009 138.829 252.927 151.609C261.858 164.377 270.195 177.562 277.845 191.139C279.731 194.518 281.628 198.028 283.49 201.301C284.439 202.871 285.293 204.502 286.325 206.025C287.392 207.524 288.377 209.071 289.491 210.523C293.939 216.365 299.252 221.553 305.218 225.849C317.125 234.452 331.642 239.438 346.348 239.843C348.186 239.867 350.025 239.807 351.863 239.807C353.701 239.724 355.528 239.498 357.354 239.355C361.149 238.974 365.075 238.427 368.941 238.117C376.709 237.403 384.49 236.939 392.293 236.856C407.889 236.618 423.497 237.606 438.938 239.926C454.368 242.306 469.632 246.03 484.291 251.611C498.914 257.228 512.956 264.665 525.29 274.541C537.637 284.334 548.085 296.722 555.213 310.858C558.795 317.902 561.594 325.316 563.705 332.884C565.828 340.452 567.251 348.21 568.045 355.992C568.864 363.786 569.125 371.604 568.947 379.41C568.757 387.216 568.046 394.986 567.002 402.709C564.962 418.143 561.143 433.362 555.64 447.891C550.161 462.444 542.867 476.295 533.901 488.955C529.394 495.262 524.484 501.271 519.1 506.852C516.289 509.565 512.873 511.624 509.173 512.802C505.473 513.98 501.523 514.289 497.704 513.73L497.716 513.766Z" fill="url(#paint8_linear_7_2192)"/>
<path d="M-233.875 476.758C-237.22 474.914 -239.912 471.88 -241.406 468.31C-242.936 464.752 -243.268 460.754 -242.782 456.91C-241.833 450.068 -240.576 443.274 -239.782 436.443L-237.41 421.07L-236.508 415.965L-234.682 405.767L-231.622 390.524L-230.495 385.467L-228.23 375.352C-225.004 361.918 -221.636 348.507 -217.734 335.24C-213.951 321.936 -209.764 308.752 -205.281 295.674C-196.196 269.555 -186.032 243.769 -174.244 218.709C-172.749 215.58 -171.326 212.426 -169.772 209.333L-165.135 200.039C-161.992 193.863 -158.636 187.795 -155.398 181.667L-150.204 172.659L-146.29 165.912L-144.914 163.711L-139.375 154.893C-138.438 153.43 -137.561 151.93 -136.576 150.502L-133.635 146.195L-127.729 137.603L-121.479 129.25C-120.423 127.858 -119.403 126.454 -118.336 125.085L-115.015 121.051C-112.785 118.374 -110.639 115.625 -108.326 113.019C-99.1228 102.536 -89.1368 92.7071 -78.3442 83.7707L-70.0779 77.2737L-61.4201 71.2883C-55.502 67.5043 -49.4771 63.8631 -43.144 60.7812C-30.5606 54.4746 -17.1233 49.8338 -3.31831 46.9185C3.59601 45.5381 10.5815 44.5148 17.6026 44.0745L20.2355 43.8722L22.8684 43.777C24.6237 43.7294 26.3789 43.6223 28.1461 43.6104C31.6566 43.6223 35.179 43.6104 38.6895 43.8127C42.2001 43.9079 45.6988 44.2887 49.1974 44.5624C52.6843 45.0027 56.183 45.3358 59.6342 45.9427C66.5722 46.978 73.4391 48.4654 80.223 50.1908C107.394 57.1519 132.988 69.1107 156.684 83.735C168.485 91.1483 179.858 99.228 190.734 107.914C196.142 112.293 201.514 116.732 206.685 121.385C209.306 123.669 211.844 126.061 214.394 128.417C216.921 130.737 219.447 133.141 221.961 135.557C241.957 154.953 259.83 176.49 275.343 199.599C277.252 202.502 279.185 205.406 281.023 208.357C281.948 209.832 282.885 211.332 283.799 212.641C284.736 213.985 285.566 215.401 286.621 216.663C290.559 221.91 295.184 226.646 300.308 230.74C310.602 238.914 322.948 244.507 335.887 246.839L338.307 247.28L343.193 247.827C344.011 247.922 344.83 247.91 345.648 247.958C347.285 248.017 348.933 248.148 350.57 248.053C352.242 247.994 353.784 248.005 355.575 247.886C362.537 247.494 369.498 247.363 376.46 247.494C390.384 247.779 404.296 249.088 418.006 251.54C431.716 253.943 445.283 257.394 458.389 262.237C471.482 267.08 484.16 273.244 495.795 281.098C507.453 288.892 517.914 298.637 526.31 309.965C534.731 321.282 540.898 334.216 544.658 347.71C546.579 354.445 547.99 361.323 548.951 368.236C549.864 375.162 550.362 382.123 550.517 389.084C550.694 396.045 550.41 403.006 549.864 409.932C549.319 416.857 548.5 423.759 547.279 430.601C544.847 444.273 541.029 457.696 535.68 470.488C532.999 476.877 529.963 483.125 526.465 489.098C524.697 492.073 522.871 495.024 520.902 497.856L514.889 506.293L514.866 506.316V506.293C512.849 508.887 510.24 511.064 507.24 512.421C504.251 513.777 500.883 514.277 497.657 513.801C500.895 514.182 504.215 513.587 507.121 512.159C510.039 510.743 512.517 508.542 514.427 505.948L520.167 497.38C522.053 494.488 523.772 491.526 525.433 488.515C528.73 482.482 531.635 476.259 534.138 469.869C539.155 457.089 542.642 443.726 544.741 430.184C545.796 423.414 546.46 416.583 546.852 409.729C547.231 402.887 547.362 396.033 547.042 389.203C546.745 382.373 546.105 375.566 545.061 368.831C543.958 362.108 542.464 355.457 540.507 348.96C536.652 335.942 530.533 323.661 522.337 312.988C514.154 302.29 504.014 293.128 492.676 285.81C481.373 278.408 469.074 272.566 456.313 268.02C443.552 263.463 430.292 260.25 416.903 258.06C403.501 255.8 389.933 254.717 376.354 254.562C369.57 254.479 362.774 254.657 356.002 255.086C354.353 255.216 352.468 255.228 350.701 255.3C348.91 255.407 347.107 255.3 345.316 255.228C344.415 255.181 343.513 255.193 342.624 255.097L337.263 254.526L334.607 254.062C320.446 251.611 306.937 245.602 295.599 236.725C289.942 232.275 284.83 227.098 280.454 221.363C279.292 219.983 278.343 218.424 277.311 216.948C276.256 215.425 275.354 214.009 274.441 212.569C272.615 209.69 270.705 206.858 268.808 204.025C253.473 181.441 235.944 160.331 216.328 141.411C213.861 139.055 211.394 136.723 208.844 134.379C206.33 132.07 203.851 129.738 201.265 127.513C196.189 122.955 190.924 118.636 185.622 114.352C174.96 105.868 163.824 98.0142 152.296 90.8032C129.216 76.4883 104.37 64.827 78.1831 58.0681C71.6483 56.3903 65.0423 54.9386 58.377 53.9391C55.0563 53.356 51.6999 53.0228 48.3672 52.5945C45.0109 52.3327 41.6664 51.9519 38.2982 51.8567C34.9418 51.6425 31.5736 51.6544 28.2172 51.6306C26.5331 51.6306 24.8609 51.7258 23.1768 51.7734L20.6624 51.8567L18.1482 52.0471C11.4473 52.4517 4.782 53.4155 -1.80026 54.6768C-14.9292 57.3542 -27.7261 61.6737 -39.7995 67.6114C-45.8717 70.503 -51.6594 73.9657 -57.3759 77.5474L-65.749 83.2472L-73.7663 89.4586C-84.2505 98.0262 -94.0231 107.498 -103.072 117.672C-105.337 120.207 -107.472 122.872 -109.678 125.466L-112.963 129.381C-114.031 130.714 -115.051 132.082 -116.094 133.427L-122.321 141.554L-128.215 149.943L-131.156 154.143C-132.153 155.536 -133.03 157.011 -133.967 158.439L-139.53 167.066L-140.917 169.232L-144.855 175.86L-150.085 184.701C-153.358 190.722 -156.738 196.696 -159.929 202.776L-164.637 211.939C-166.214 214.985 -167.661 218.102 -169.179 221.184C-181.265 245.852 -191.773 271.316 -201.213 297.162C-210.594 323.031 -218.813 349.34 -225.704 376.019L-229.404 391.071L-232.784 406.207L-235.844 421.403L-236.745 426.484L-238.536 436.658C-239.532 443.512 -240.991 450.271 -242.13 457.053C-242.723 460.778 -242.509 464.681 -241.11 468.227C-239.746 471.761 -237.184 474.855 -233.887 476.794L-233.875 476.758Z" fill="url(#paint9_linear_7_2192)"/>
<path d="M-233.875 476.758C-235.168 476.033 -236.283 474.985 -237.125 473.76C-237.979 472.534 -238.536 471.106 -238.868 469.643C-239.544 466.704 -239.248 463.622 -238.548 460.718L-238.311 460.516L-238.536 460.718C-237.73 457.636 -236.793 454.59 -235.975 451.532C-235.559 449.997 -235.168 448.462 -234.824 446.927C-234.48 445.404 -234.172 443.797 -233.935 442.322V442.262H-233.923L-231.859 433.159L-230.815 428.614L-227.364 415.037L-224.862 406.041L-223.605 401.543L-222.264 397.069L-219.56 388.132L-216.69 379.243C-215.73 376.28 -214.781 373.317 -213.737 370.378C-205.637 346.829 -196.564 323.578 -186.163 300.922C-175.821 278.242 -164.566 255.966 -152.03 234.393C-139.47 212.843 -125.855 191.781 -109.951 172.385L-103.974 165.127L-97.6996 158.106L-94.5567 154.608L-91.2478 151.252C-89.03 149.027 -86.8715 146.742 -84.6063 144.564C-75.5215 135.866 -65.8083 127.798 -55.4901 120.516C-34.8064 106.058 -11.0984 95.5392 13.8667 90.8628C38.82 86.222 64.6035 87.0669 89.284 92.1836C101.654 94.6824 113.763 98.2641 125.599 102.56C137.388 106.951 148.939 111.996 160.064 117.827C171.189 123.657 182.017 130.047 192.418 137.056C195.027 138.793 197.624 140.566 200.174 142.387C202.76 144.172 205.262 146.052 207.788 147.896C210.303 149.753 212.793 151.716 215.26 153.572C217.668 155.417 220.241 157.356 222.661 159.32C242.301 175.027 260.091 192.995 275.651 212.712C277.584 215.187 279.517 217.662 281.379 220.197C282.328 221.494 283.241 222.648 284.154 223.802L285.518 225.551L286.989 227.217C290.903 231.656 295.315 235.678 300.082 239.236C309.653 246.316 320.671 251.444 332.211 254.265C337.987 255.657 343.905 256.514 349.835 256.609C356.061 256.74 362.394 257.037 368.633 257.62C381.145 258.774 393.586 260.857 405.754 263.951C417.934 266.973 429.925 270.816 441.524 275.671C453.111 280.538 464.354 286.381 474.743 293.568C485.121 300.755 494.692 309.216 502.792 318.973C503.302 319.58 503.836 320.163 504.322 320.794L505.745 322.698L508.58 326.517C509.529 327.791 510.311 329.171 511.189 330.492C512.031 331.836 512.921 333.145 513.727 334.514C516.929 339.987 519.645 345.723 521.981 351.589C524.342 357.456 526.204 363.501 527.71 369.617C529.228 375.733 530.378 381.921 531.161 388.156C532.81 400.603 533.13 413.18 532.584 425.663C531.991 438.157 530.367 450.616 527.461 462.765C524.567 474.914 520.404 486.79 514.545 497.82L513.857 497.844L514.557 497.808L509.861 506.554C508.568 508.708 506.919 510.695 504.82 512.088C502.733 513.48 500.171 514.194 497.692 513.825C500.171 514.11 502.685 513.325 504.678 511.897C506.694 510.469 508.248 508.47 509.445 506.328L513.846 497.475L514.545 497.44L513.857 497.463C519.277 486.314 523.12 474.462 525.706 462.372C528.279 450.271 529.607 437.931 529.892 425.567C530.141 413.204 529.513 400.829 527.615 388.668C526.702 382.575 525.433 376.554 523.808 370.64C522.183 364.726 520.309 358.884 517.925 353.255C515.553 347.627 512.861 342.141 509.695 336.941C508.9 335.644 508.022 334.395 507.192 333.121C506.326 331.872 505.555 330.551 504.63 329.349L501.843 325.744L500.456 323.935C499.981 323.34 499.459 322.793 498.961 322.222C491.039 313 481.705 305.039 471.577 298.28C461.472 291.474 450.514 285.941 439.187 281.359C427.861 276.778 416.132 273.173 404.212 270.376C392.317 267.509 380.196 265.664 368.028 264.653C361.932 264.129 355.86 263.891 349.704 263.808C343.241 263.748 336.801 262.88 330.527 261.416C317.979 258.453 306.036 253.003 295.587 245.4C290.381 241.58 285.542 237.237 281.201 232.405L279.576 230.597L278.058 228.693C277.039 227.42 276.018 226.134 275.117 224.945C273.267 222.493 271.381 220.078 269.46 217.674C254.137 198.504 236.762 180.965 217.585 165.722C215.189 163.782 212.793 161.997 210.279 160.069C207.788 158.189 205.393 156.321 202.914 154.5C200.435 152.692 197.968 150.859 195.442 149.122C192.94 147.349 190.402 145.624 187.852 143.922C177.652 137.104 167.073 130.88 156.221 125.228C145.37 119.552 134.174 114.59 122.741 110.318C111.272 106.13 99.5665 102.619 87.6354 100.192C63.8207 95.1941 39.1284 94.3493 15.2899 98.7163C-8.56041 103.024 -31.2366 112.853 -51.3273 126.644C-61.3371 133.593 -70.8132 141.34 -79.7318 149.753C-81.9615 151.859 -84.0844 154.072 -86.2548 156.226L-89.5044 159.474L-92.6236 162.866L-98.85 169.66L-104.804 176.705C-120.649 195.541 -134.359 216.175 -147.072 237.379C-153.441 247.994 -159.478 258.798 -165.337 269.71C-168.195 275.195 -171.136 280.657 -173.876 286.214L-178.027 294.52L-182.047 302.897C-203.277 347.662 -221.007 394.284 -232.808 442.56V442.488C-233.104 444.142 -233.448 445.654 -233.852 447.224C-234.255 448.771 -234.694 450.306 -235.156 451.829C-236.081 454.876 -237.113 457.886 -238.014 460.932L-238.24 461.135L-238.003 460.932C-238.773 463.752 -239.165 466.751 -238.584 469.655C-238.299 471.094 -237.801 472.51 -236.994 473.748C-236.2 474.985 -235.132 476.056 -233.863 476.83L-233.875 476.758Z" fill="url(#paint10_linear_7_2192)"/>
<path d="M-233.875 476.758C-234.836 476.223 -235.465 475.212 -235.761 474.164C-236.069 473.105 -236.105 471.987 -236.022 470.892C-235.832 468.691 -235.168 466.561 -234.338 464.538C-233.176 461.908 -231.883 459.338 -230.78 456.708C-230.222 455.387 -229.712 454.066 -229.274 452.71C-228.835 451.389 -228.455 449.937 -228.194 448.664L-228.171 448.557C-226.415 443.095 -224.791 437.574 -222.834 432.172L-219.987 424.032L-216.963 415.965L-215.445 411.931L-210.642 399.936L-207.273 391.999C-206.159 389.346 -205.02 386.716 -203.822 384.098C-194.453 363.108 -184.182 342.51 -172.832 322.507C-161.553 302.469 -149.468 282.882 -136.505 263.867C-130.053 254.348 -123.246 245.019 -116.237 235.868C-114.47 233.595 -112.631 231.37 -110.829 229.109C-109.002 226.872 -107.259 224.576 -105.337 222.41C-101.566 218.031 -97.8656 213.604 -93.8807 209.416C-78.2968 192.352 -60.839 176.812 -41.3769 164.032C-31.6991 157.57 -21.3692 152.073 -10.6834 147.385L-6.6747 145.635C-5.34637 145.04 -3.9469 144.588 -2.59488 144.065L1.50865 142.53L3.56041 141.768C4.24828 141.518 4.94804 141.328 5.64778 141.102C8.43486 140.245 11.2219 139.341 14.0209 138.52L22.5244 136.437C23.9476 136.104 25.359 135.711 26.794 135.438L31.1111 134.7C33.993 134.224 36.8631 133.677 39.7451 133.272L48.4503 132.368C49.8972 132.249 51.3441 132.011 52.8029 131.975L57.1673 131.796C68.8138 131.083 80.4839 131.832 92.0473 132.963C115.15 135.723 137.839 141.494 159.412 149.967C170.264 154.048 180.736 159.046 191.101 164.186L202.582 170.327L206.33 172.504L213.825 176.871L217.49 179.001C218.747 179.727 220.004 180.477 221.238 181.238C241.079 193.376 259.296 208.119 275.366 224.885L278.367 228.05L281.308 231.275C282.304 232.382 283.218 233.322 284.166 234.345C285.079 235.368 286.088 236.308 287.072 237.26C291.045 241.068 295.35 244.531 299.904 247.66C309.025 253.896 319.177 258.667 329.756 261.821C335.045 263.391 340.465 264.534 345.933 265.141C351.649 265.783 357.449 266.604 363.142 267.687C374.551 269.853 385.806 272.911 396.717 276.826C407.628 280.669 418.326 285.167 428.656 290.462C438.974 295.746 448.936 301.814 458.175 308.906C467.402 315.986 475.953 324.042 483.342 333.074L484.741 334.752C485.192 335.323 485.619 335.918 486.058 336.501L488.667 340.023C489.568 341.177 490.304 342.439 491.122 343.652L493.506 347.329C496.53 352.327 499.222 357.503 501.606 362.81C506.326 373.46 509.695 384.646 512.019 395.986C513.205 401.65 514.095 407.373 514.771 413.109C515.459 418.844 515.945 424.604 516.194 430.363C516.74 441.881 516.502 453.448 515.221 464.907C513.941 476.354 511.569 487.718 507.596 498.534L507.56 498.249L507.596 498.522L504.82 506.709C504.192 508.387 503.409 510.017 502.27 511.409C501.701 512.099 501.049 512.73 500.266 513.17C499.495 513.635 498.594 513.861 497.704 513.73C498.594 513.825 499.483 513.563 500.219 513.087C500.966 512.623 501.594 511.981 502.128 511.29C503.195 509.886 503.907 508.244 504.464 506.578L506.955 498.308L506.991 498.582L506.955 498.296C508.734 492.858 510.122 487.301 511.177 481.685C512.256 476.08 513.015 470.404 513.502 464.716C514.474 453.341 514.415 441.881 513.585 430.506C511.912 407.778 507.228 385.122 497.669 364.607C495.261 359.502 492.557 354.552 489.556 349.792L487.196 346.294C486.39 345.14 485.667 343.938 484.777 342.843L482.203 339.499C481.776 338.94 481.361 338.381 480.911 337.834L479.535 336.239C472.253 327.672 463.88 320.068 454.819 313.38C445.782 306.669 436.045 300.886 425.928 295.888C415.811 290.879 405.315 286.631 394.594 283.025C383.908 279.348 372.985 276.564 361.896 274.589C356.346 273.589 350.807 272.851 345.162 272.256C339.256 271.65 333.432 270.46 327.74 268.829C316.378 265.545 305.526 260.547 295.682 253.943C290.772 250.635 286.099 246.946 281.771 242.853C280.691 241.83 279.6 240.818 278.592 239.712C277.572 238.641 276.493 237.534 275.568 236.511L272.686 233.405L269.745 230.359C253.995 214.176 236.323 199.849 217.063 188.164C215.865 187.426 214.655 186.712 213.434 186.01L209.674 183.832L202.321 179.584L198.644 177.454L194.897 175.455L187.401 171.469C177.261 166.471 167.026 161.616 156.447 157.678C135.443 149.396 113.455 143.732 91.146 141.007C79.9858 139.876 68.7426 139.126 57.5468 139.793L53.3484 139.948C51.949 139.971 50.5613 140.197 49.1619 140.316L40.8006 141.161C38.0254 141.542 35.2739 142.066 32.5105 142.506L28.3714 143.196C26.9957 143.458 25.6436 143.827 24.2797 144.136L16.1082 146.064C13.416 146.825 10.7476 147.67 8.0672 148.467C7.40305 148.67 6.72701 148.86 6.06285 149.086L4.09412 149.8L0.14476 151.24C-1.15984 151.74 -2.50002 152.156 -3.79274 152.716L-7.65906 154.37C-17.9535 158.796 -27.9514 164.008 -37.3682 170.184C-56.3085 182.381 -73.4224 197.433 -88.9826 213.938C-92.9438 217.995 -96.6559 222.315 -100.416 226.563C-102.325 228.657 -104.08 230.906 -105.907 233.084C-107.709 235.285 -109.548 237.451 -111.327 239.676C-118.371 248.624 -125.215 257.727 -131.749 267.092C-138.344 276.421 -144.689 285.917 -150.927 295.496C-157.07 305.134 -163.155 314.808 -168.895 324.697C-192.069 364.095 -212.397 405.362 -227.163 448.783L-227.139 448.676C-227.495 450.211 -227.91 451.52 -228.42 452.912C-228.918 454.281 -229.487 455.601 -230.092 456.91C-231.302 459.528 -232.677 462.051 -233.923 464.621C-234.812 466.596 -235.536 468.667 -235.797 470.821C-235.903 471.892 -235.915 472.998 -235.654 474.045C-235.405 475.093 -234.824 476.104 -233.887 476.675L-233.875 476.758Z" fill="url(#paint11_linear_7_2192)"/>
<path d="M-233.875 476.758C-234.041 476.639 -234.041 476.401 -234.029 476.211C-234.029 476.009 -233.982 475.818 -233.935 475.628C-233.84 475.247 -233.709 474.878 -233.567 474.51C-233.282 473.772 -232.938 473.07 -232.571 472.368C-231.835 470.975 -231.005 469.643 -230.128 468.334C-227.127 464.086 -224.553 459.552 -222.395 454.84L-222.442 455.006L-222.407 454.864C-214.129 435.325 -204.451 416.381 -193.812 398.021C-183.186 379.648 -171.753 361.716 -159.49 344.39C-147.286 327.017 -134.43 310.096 -121.016 293.628C-117.695 289.487 -114.221 285.453 -110.793 281.383C-109.097 279.336 -107.294 277.373 -105.539 275.374L-100.226 269.412L-94.7584 263.582L-92.0306 260.666L-89.2198 257.822L-83.5863 252.146L-77.7868 246.625L-74.8811 243.865L-65.915 235.868C-61.7878 232.465 -57.7672 228.943 -53.474 225.742C-51.3392 224.124 -49.2755 222.422 -47.0815 220.887L-40.5466 216.21C-38.3644 214.664 -36.0873 213.247 -33.8576 211.748L-30.4894 209.547L-27.0382 207.464L-23.5869 205.394C-22.4484 204.692 -21.2861 204.014 -20.1001 203.383L-13.0316 199.516C-8.21646 197.124 -3.43694 194.673 1.52051 192.602L5.20897 190.984C6.4424 190.448 7.71143 190.008 8.96857 189.508C11.4948 188.568 13.9616 187.509 16.5233 186.676L24.1848 184.13C26.7703 183.38 29.3676 182.69 31.9649 181.964L35.855 180.893C37.1596 180.548 38.4761 180.31 39.7925 180.013L47.6794 178.335C50.3241 177.835 52.9926 177.478 55.6374 177.05C58.294 176.633 60.9506 176.181 63.631 175.967L71.6483 175.146C74.3286 174.908 77.0089 174.836 79.6893 174.682C85.05 174.289 90.4225 174.456 95.795 174.396C106.516 174.717 117.25 175.348 127.852 176.907C133.178 177.514 138.432 178.573 143.721 179.453C146.354 179.941 148.963 180.548 151.584 181.095C154.205 181.655 156.826 182.19 159.412 182.892L167.18 184.879C169.765 185.57 172.315 186.367 174.889 187.117C180.048 188.544 185.077 190.353 190.165 192.007C192.691 192.876 195.181 193.84 197.696 194.744C200.21 195.66 202.712 196.577 205.179 197.612L219.957 203.573C239.822 211.939 258.395 223.291 274.975 236.999L278.07 239.593L281.106 242.246C283.111 243.984 284.973 245.638 287.013 247.232C291.021 250.421 295.243 253.384 299.608 256.109C308.349 261.571 317.706 266.045 327.396 269.531C332.246 271.269 337.18 272.732 342.197 273.839C347.392 275.005 352.657 276.35 357.781 277.932C368.051 281.109 378.085 285.143 387.668 289.879C397.274 294.544 406.667 299.684 415.717 305.384C424.766 311.084 433.495 317.367 441.631 324.364C449.766 331.36 457.345 339.047 464.07 347.448C470.83 355.837 476.57 365.012 481.361 374.615C490.897 393.903 496.376 414.81 499.661 435.813C501.286 446.332 502.401 456.934 502.721 467.572C503.053 478.21 502.531 488.896 500.634 499.367L500.598 499.177L500.634 499.355L499.78 506.995C499.661 508.208 499.483 509.41 499.234 510.6C499.104 511.195 498.95 511.79 498.748 512.361C498.653 512.647 498.523 512.932 498.38 513.194C498.226 513.444 498.06 513.765 497.74 513.777C498.06 513.754 498.214 513.42 498.357 513.182C498.487 512.909 498.594 512.623 498.689 512.338C498.867 511.766 498.997 511.171 499.104 510.576C499.305 509.387 499.436 508.173 499.507 506.971L500.076 499.284L500.112 499.462L500.076 499.272C501.547 488.789 501.654 478.186 501.072 467.644C500.456 457.101 499.056 446.617 497.147 436.241C493.328 415.513 487.256 395.117 477.542 376.566C472.68 367.308 466.951 358.55 460.251 350.578C453.585 342.581 446.078 335.287 438.049 328.647C421.979 315.32 403.797 304.67 384.869 295.793C375.44 291.295 365.739 287.583 355.776 284.644C350.795 283.156 345.802 281.919 340.679 280.812C335.366 279.682 330.135 278.182 325.012 276.397C314.777 272.828 304.921 268.211 295.67 262.546C291.045 259.714 286.562 256.633 282.269 253.277C280.122 251.635 278.011 249.79 276.007 248.089L273.042 245.554L270.029 243.079C253.9 229.966 236.003 219.019 216.861 211.046L202.214 205.192C199.795 204.192 197.34 203.3 194.885 202.407C192.43 201.527 189.987 200.587 187.508 199.742C182.539 198.147 177.605 196.386 172.576 195.006C170.062 194.292 167.571 193.518 165.045 192.852L157.455 190.936C154.929 190.258 152.379 189.734 149.829 189.175C147.279 188.64 144.741 188.033 142.179 187.557C137.044 186.688 131.932 185.629 126.761 185.034C116.455 183.487 106.054 182.845 95.6646 182.5C90.47 182.547 85.2635 182.357 80.0807 182.738C77.4833 182.88 74.886 182.94 72.3006 183.166L64.556 183.939C61.9706 184.142 59.4088 184.558 56.8471 184.963C54.2853 185.379 51.7118 185.712 49.1619 186.188L41.5478 187.783C40.2788 188.068 38.9979 188.283 37.7526 188.616L26.4857 191.65L19.0851 194.042C16.6182 194.827 14.2106 195.827 11.7794 196.707C10.5696 197.171 9.33621 197.588 8.13835 198.1L4.55667 199.635C-0.258453 201.586 -4.90756 203.93 -9.58037 206.203L-16.4591 209.892C-17.6214 210.487 -18.7362 211.141 -19.8629 211.82L-26.5993 215.794L-29.8846 217.912C-32.0668 219.34 -34.2846 220.708 -36.4312 222.196L-42.8474 226.694C-45.006 228.169 -47.034 229.823 -49.1332 231.382C-53.3435 234.476 -57.3166 237.891 -61.4201 241.151L-67.3619 246.292L-70.3269 248.874L-73.2207 251.54L-78.9965 256.882L-84.6181 262.392L-87.4289 265.152L-90.1686 267.984L-95.6478 273.66L-100.985 279.467C-102.752 281.419 -104.567 283.323 -106.262 285.334C-109.714 289.308 -113.201 293.235 -116.569 297.316C-123.4 305.372 -130.042 313.571 -136.624 321.817C-143.135 330.123 -149.599 338.476 -155.813 347.02C-180.838 381.016 -203.68 416.833 -221.505 455.256L-221.47 455.114L-221.517 455.28C-223.877 459.957 -226.641 464.431 -229.819 468.584C-230.744 469.845 -231.61 471.142 -232.405 472.499C-232.796 473.177 -233.164 473.867 -233.472 474.581C-233.626 474.938 -233.769 475.307 -233.875 475.676C-233.923 475.866 -233.97 476.056 -233.994 476.247C-234.006 476.437 -234.029 476.663 -233.863 476.794L-233.875 476.758Z" fill="url(#paint12_linear_7_2192)"/>
<path d="M-233.875 476.758C-233.128 477.127 -232.298 476.758 -231.61 476.425C-230.91 476.068 -230.246 475.616 -229.606 475.152C-228.325 474.212 -227.127 473.165 -225.941 472.118L-225.846 472.07L-225.941 472.106C-222.264 468.976 -219.193 465.192 -216.667 461.099L-216.738 461.325L-216.667 461.123C-206.787 444.095 -195.674 427.781 -183.803 412.062C-171.943 396.331 -159.407 381.112 -146.266 366.44C-133.161 351.732 -119.581 337.453 -105.658 323.543C-91.746 309.573 -77.0989 296.245 -61.6455 283.894C-46.1682 271.578 -29.7897 260.298 -12.403 250.671C-3.72156 245.864 5.16153 241.378 14.3174 237.486C15.456 236.999 16.5945 236.475 17.7449 235.999L21.208 234.619C23.5326 233.726 25.8096 232.727 28.1698 231.929L35.2027 229.431L42.3305 227.205C61.3657 221.327 81.065 217.876 100.847 216.103C103.314 215.818 105.805 215.746 108.272 215.568C110.75 215.437 113.229 215.223 115.708 215.163C120.665 215.044 125.635 214.842 130.592 214.949C140.519 214.949 150.434 215.532 160.301 216.377C165.235 216.889 170.169 217.353 175.079 218.055C180.001 218.65 184.887 219.471 189.773 220.256C192.216 220.637 194.648 221.149 197.079 221.589C199.51 222.041 201.953 222.481 204.361 223.017L218.83 226.075C238.399 230.561 257.173 238.319 274.228 248.85L277.406 250.838L280.537 252.908C282.613 254.276 284.558 255.609 286.621 256.894C290.689 259.488 294.852 261.963 299.062 264.343C307.495 269.079 316.212 273.363 325.095 277.195C329.542 279.11 334.037 280.895 338.58 282.537C343.252 284.227 347.937 286.107 352.468 288.19C361.552 292.366 370.305 297.364 378.524 302.909C394.997 313.845 410.83 325.91 425.062 339.809C432.154 346.758 438.855 354.148 444.951 362.001C451.083 369.855 456.515 378.232 461.33 386.918C470.925 404.339 477.768 423.057 483.164 442.024C485.844 451.52 488.24 461.099 490.114 470.785C492 480.471 493.34 490.276 493.672 500.141L493.624 499.998L493.672 500.129C493.85 502.509 494.182 504.889 494.727 507.221C495 508.435 495.285 509.648 495.676 510.826C495.878 511.409 496.091 512.004 496.388 512.54C496.684 513.063 497.064 513.646 497.704 513.765C497.064 513.67 496.649 513.099 496.328 512.576C496.008 512.04 495.759 511.457 495.534 510.874C495.095 509.696 494.751 508.494 494.431 507.292C493.79 504.972 493.352 502.58 493.079 500.176L493.126 500.307L493.079 500.164C491.466 480.578 486.568 461.444 480.697 442.762C474.791 424.08 467.39 405.862 457.582 389.036C452.684 380.636 447.205 372.592 441.073 365.083C434.953 357.551 428.276 350.495 421.184 343.855C407.047 330.527 391.344 318.914 374.954 308.407C366.818 303.099 358.398 298.483 349.586 294.58C345.186 292.616 340.738 290.867 336.172 289.272C331.476 287.63 326.826 285.833 322.248 283.918C313.081 280.074 304.115 275.767 295.386 270.983C291.021 268.591 286.728 266.081 282.494 263.439C280.383 262.142 278.272 260.726 276.232 259.417L273.208 257.465L270.136 255.585C253.698 245.638 235.73 238.2 217.039 234.012L202.712 231.037C200.34 230.513 197.945 230.097 195.561 229.657C193.165 229.24 190.793 228.74 188.397 228.383C183.606 227.634 178.815 226.837 173.999 226.277C169.196 225.599 164.369 225.171 159.542 224.683C149.888 223.874 140.199 223.231 130.521 223.219C125.682 223.1 120.843 223.291 115.993 223.386C113.573 223.433 111.166 223.636 108.746 223.755C106.327 223.909 103.907 223.981 101.512 224.242C82.2392 225.908 63.0854 229.216 44.5958 234.845L37.6577 236.939L30.8027 239.307C28.5019 240.057 26.2841 241.009 24.0188 241.854L20.6387 243.162C19.512 243.615 18.4091 244.102 17.2942 244.578C8.35184 248.267 -0.353348 252.563 -8.86877 257.18C-17.4198 261.761 -25.6862 266.866 -33.7984 272.221C-41.9342 277.54 -49.7855 283.311 -57.53 289.201C-72.948 301.136 -87.6068 314.047 -101.625 327.695C-115.739 341.284 -129.591 355.159 -142.933 369.51L-147.938 374.9L-152.872 380.35C-156.193 383.956 -159.395 387.656 -162.668 391.309C-169.085 398.723 -175.453 406.172 -181.549 413.847C-193.872 429.102 -205.317 445.07 -215.813 461.658L-215.741 461.456L-215.813 461.682C-218.552 465.74 -221.826 469.44 -225.668 472.451C-226.902 473.462 -228.159 474.45 -229.475 475.354C-230.139 475.795 -230.815 476.223 -231.551 476.556C-232.25 476.866 -233.116 477.199 -233.852 476.806L-233.875 476.758Z" fill="url(#paint13_linear_7_2192)"/>
<path d="M-233.875 476.758C-232.001 477.77 -229.807 477.77 -227.779 477.425C-226.747 477.258 -225.739 477.008 -224.731 476.723C-223.711 476.437 -222.751 476.14 -221.707 475.818H-221.766C-217.556 473.903 -213.915 470.88 -210.974 467.334L-211.116 467.655L-210.986 467.346C-199.446 452.972 -186.993 439.335 -173.947 426.293C-160.925 413.228 -147.369 400.71 -133.398 388.68C-119.439 376.625 -105.16 364.976 -90.6074 353.648C-76.079 342.284 -61.0524 331.479 -45.5515 321.389C-37.7951 316.355 -29.9083 311.512 -21.891 306.895C-13.8499 302.326 -5.71405 297.899 2.57603 293.747C19.1562 285.488 36.1871 278.087 53.7991 272.102C55.9932 271.316 58.1991 270.626 60.4288 269.948L67.0822 267.889L73.7831 266.021C76.0127 265.39 78.2543 264.772 80.5077 264.236L87.2559 262.558C89.5093 262.011 91.7746 261.547 94.0398 261.035C98.5584 259.988 103.113 259.155 107.667 258.263C125.884 254.883 144.278 252.587 162.685 251.052C171.9 250.314 181.115 249.767 190.319 249.326C194.92 249.136 199.534 248.922 204.135 248.791L211.074 248.577C213.505 248.589 215.806 248.577 218.178 248.684C237.023 249.362 255.714 253.443 273.113 260.631C275.283 261.535 277.442 262.463 279.576 263.463C281.723 264.438 283.763 265.426 285.85 266.426L298.291 272.459C306.558 276.528 314.789 280.693 322.96 284.941C327.052 287.071 331.132 289.213 335.2 291.39C339.339 293.604 343.395 296.007 347.32 298.578C355.172 303.718 362.572 309.644 369.38 315.963C383.054 328.397 396.278 341.38 408.553 355.266C420.805 369.165 432.071 384.027 441.737 399.841C451.462 415.632 459.669 432.255 467.153 449.116C470.889 457.553 474.471 466.061 477.815 474.664C481.16 483.267 484.243 491.978 486.758 500.867C487.469 503.151 488.442 505.364 489.711 507.399L489.687 507.364C490.268 508.054 490.814 508.708 491.395 509.375C491.976 510.029 492.557 510.672 493.198 511.267C494.455 512.456 495.949 513.48 497.693 513.754C495.937 513.563 494.372 512.587 493.043 511.433C492.379 510.862 491.751 510.243 491.146 509.601C490.541 508.97 489.936 508.304 489.367 507.685L489.343 507.661C487.967 505.626 486.876 503.413 486.046 501.105C480.164 483.672 472.715 466.823 464.745 450.271C456.788 433.707 448.011 417.559 438.061 402.209C428.158 386.823 416.772 372.508 404.367 359.086C392.032 345.604 378.749 332.991 365.004 320.913C358.22 314.82 351.116 309.37 343.513 304.527C339.73 302.1 335.84 299.851 331.855 297.769C327.799 295.65 323.719 293.556 319.639 291.486C311.468 287.345 303.249 283.287 294.983 279.325L282.565 273.446C278.379 271.507 274.323 269.591 270.16 267.949C253.532 261.249 235.778 257.382 217.905 256.811C215.687 256.704 213.398 256.74 211.24 256.728L204.408 256.954C199.83 257.108 195.264 257.335 190.698 257.537C181.566 258.001 172.446 258.572 163.349 259.334C145.156 260.821 127.034 262.999 109.126 266.271C104.654 267.14 100.171 267.937 95.7477 268.948C93.5298 269.436 91.3002 269.888 89.0823 270.424L82.4645 272.042C80.2467 272.554 78.0645 273.161 75.8704 273.768L69.3 275.576L62.7889 277.575C60.6186 278.23 58.4482 278.908 56.3015 279.658C21.7892 291.081 -11.0154 307.693 -41.958 327.065C-57.4352 336.786 -72.4736 347.21 -87.1087 358.265C-101.791 369.272 -116.32 380.481 -130.469 392.166C-158.766 415.489 -186.127 440.168 -210.12 468.06L-209.989 467.751L-210.132 468.072C-213.31 471.594 -217.188 474.533 -221.577 476.318H-221.588L-221.636 476.342C-222.597 476.604 -223.652 476.877 -224.66 477.115C-225.68 477.353 -226.724 477.556 -227.767 477.687C-229.843 477.96 -232.073 477.853 -233.899 476.758H-233.875Z" fill="url(#paint14_linear_7_2192)"/>
<path d="M-233.875 476.758C-229.784 478.972 -225.123 480.055 -220.545 479.84C-215.955 479.65 -211.484 478.091 -207.783 475.461C-206.835 474.843 -205.993 474.081 -205.103 473.367L-186.388 457.612C-179.011 451.925 -171.682 446.165 -164.234 440.549L-147.167 428.352C-145.258 427.007 -143.396 425.603 -141.439 424.342C-110.579 403.399 -78.3916 384.431 -45.3025 367.249C20.8878 332.919 90.3039 304.634 162.199 284.394L182.491 278.956L189.322 277.385L202.973 274.232L209.805 272.661C212.117 272.209 214.501 271.828 216.837 271.411L220.372 270.805C221.546 270.602 222.744 270.543 223.93 270.4L231.058 269.686C233.441 269.567 235.825 269.531 238.209 269.448L241.791 269.341L245.372 269.484C247.756 269.591 250.14 269.65 252.524 269.805L259.64 270.59C260.826 270.745 262.024 270.805 263.186 271.043L266.708 271.685L270.231 272.34C271.405 272.566 272.579 272.744 273.729 273.077L280.656 274.862L282.387 275.314L287.475 276.992C292.053 278.361 296.406 280.312 300.83 282.085C303.012 283.025 305.123 284.156 307.269 285.179L310.483 286.75C311.539 287.297 312.559 287.928 313.591 288.511L319.782 292.093L325.712 296.079C326.696 296.757 327.704 297.388 328.653 298.102L331.476 300.291C333.338 301.767 335.271 303.171 337.085 304.718C340.608 307.919 344.296 310.953 347.51 314.475L350.001 317.045C350.831 317.902 351.673 318.747 352.42 319.675L357.022 325.137C358.599 326.946 359.951 328.802 361.41 330.635L365.715 336.144C388.605 365.583 410.629 395.688 431.751 426.424C442.247 441.834 452.53 457.386 462.504 473.129C467.473 481.018 472.395 488.932 477.163 496.94C478.349 498.927 479.511 500.997 480.733 502.913C482.002 504.817 483.532 506.543 485.275 508.042C488.762 511.041 493.126 513.028 497.716 513.754C493.103 513.23 488.596 511.433 484.884 508.53C483.034 507.078 481.373 505.365 479.974 503.449C478.598 501.497 477.4 499.546 476.107 497.594C471.067 489.764 465.908 482.03 460.678 474.331C450.193 458.957 439.425 443.785 428.442 428.768C417.507 413.716 406.383 398.806 395.057 384.063C383.73 369.319 372.309 354.647 360.639 340.166L356.263 334.74C354.792 332.955 353.369 331.063 351.851 329.397L347.368 324.256C346.644 323.376 345.826 322.591 345.02 321.793L342.6 319.39C339.481 316.082 335.947 313.214 332.555 310.203C330.823 308.74 328.961 307.431 327.17 306.039L324.466 303.98C323.553 303.302 322.581 302.719 321.644 302.088L315.963 298.352L310.045 295.008C309.048 294.461 308.088 293.877 307.08 293.354L304.008 291.89C301.956 290.938 299.94 289.891 297.853 289.011C293.63 287.368 289.48 285.56 285.127 284.31L281.889 283.275L280.276 282.763L272.045 280.741C270.954 280.431 269.839 280.277 268.725 280.074L265.38 279.491L262.048 278.896C260.945 278.67 259.806 278.622 258.691 278.48L251.955 277.754C249.701 277.623 247.448 277.575 245.183 277.48L241.803 277.349L238.423 277.468C236.169 277.552 233.904 277.599 231.651 277.706L224.914 278.408C223.799 278.539 222.661 278.599 221.546 278.801L218.213 279.396C215.984 279.801 213.778 280.158 211.536 280.598L184.543 286.928L177.842 288.737L164.452 292.366C128.789 302.195 93.7196 314.273 59.2428 327.802C24.7304 341.273 -9.11783 356.468 -42.3256 372.96C-75.486 389.548 -107.923 407.635 -139.162 427.674C-141.154 428.864 -143.052 430.196 -144.997 431.47L-162.372 443.036C-169.962 448.379 -177.458 453.852 -184.989 459.278L-204.154 474.355C-205.103 475.057 -206.016 475.842 -207.048 476.437C-211.045 479.019 -215.777 480.412 -220.485 480.4C-225.194 480.412 -229.843 479.079 -233.84 476.699L-233.875 476.758Z" fill="url(#paint15_linear_7_2192)"/>
</g>
<defs>
<linearGradient id="paint0_linear_7_2192" x1="1669.69" y1="200.466" x2="1111.14" y2="349.746" gradientUnits="userSpaceOnUse">
<stop stop-color="#4C1D95"/>
<stop offset="1" stop-opacity="0"/>
</linearGradient>
<linearGradient id="paint1_linear_7_2192" x1="1669.69" y1="200.466" x2="1111.14" y2="349.746" gradientUnits="userSpaceOnUse">
<stop stop-color="#4C1D95"/>
<stop offset="1" stop-opacity="0"/>
</linearGradient>
<linearGradient id="paint2_linear_7_2192" x1="1669.69" y1="200.466" x2="1111.14" y2="349.746" gradientUnits="userSpaceOnUse">
<stop stop-color="#4C1D95"/>
<stop offset="1" stop-opacity="0"/>
</linearGradient>
<linearGradient id="paint3_linear_7_2192" x1="1669.69" y1="200.466" x2="1111.14" y2="349.746" gradientUnits="userSpaceOnUse">
<stop stop-color="#4C1D95"/>
<stop offset="1" stop-opacity="0"/>
</linearGradient>
<linearGradient id="paint4_linear_7_2192" x1="1669.69" y1="200.466" x2="1111.14" y2="349.746" gradientUnits="userSpaceOnUse">
<stop stop-color="#4C1D95"/>
<stop offset="1" stop-opacity="0"/>
</linearGradient>
<linearGradient id="paint5_linear_7_2192" x1="1669.69" y1="200.466" x2="1111.14" y2="349.746" gradientUnits="userSpaceOnUse">
<stop stop-color="#4C1D95"/>
<stop offset="1" stop-opacity="0"/>
</linearGradient>
<linearGradient id="paint6_linear_7_2192" x1="1669.69" y1="200.466" x2="1111.14" y2="349.746" gradientUnits="userSpaceOnUse">
<stop stop-color="#4C1D95"/>
<stop offset="1" stop-opacity="0"/>
</linearGradient>
<linearGradient id="paint7_linear_7_2192" x1="1669.69" y1="200.466" x2="1111.14" y2="349.746" gradientUnits="userSpaceOnUse">
<stop stop-color="#4C1D95"/>
<stop offset="1" stop-opacity="0"/>
</linearGradient>
<linearGradient id="paint8_linear_7_2192" x1="432.571" y1="362.719" x2="-3.16681" y2="128.516" gradientUnits="userSpaceOnUse">
<stop stop-opacity="0"/>
<stop offset="0.514999" stop-color="#19181B" stop-opacity="0.08"/>
<stop offset="1" stop-color="#4C1D95"/>
</linearGradient>
<linearGradient id="paint9_linear_7_2192" x1="432.571" y1="362.719" x2="-3.16681" y2="128.516" gradientUnits="userSpaceOnUse">
<stop stop-opacity="0"/>
<stop offset="0.514999" stop-color="#19181B" stop-opacity="0.08"/>
<stop offset="1" stop-color="#4C1D95"/>
</linearGradient>
<linearGradient id="paint10_linear_7_2192" x1="432.571" y1="362.719" x2="-3.16681" y2="128.516" gradientUnits="userSpaceOnUse">
<stop stop-opacity="0"/>
<stop offset="0.514999" stop-color="#19181B" stop-opacity="0.08"/>
<stop offset="1" stop-color="#4C1D95"/>
</linearGradient>
<linearGradient id="paint11_linear_7_2192" x1="432.571" y1="362.719" x2="-3.16681" y2="128.516" gradientUnits="userSpaceOnUse">
<stop stop-opacity="0"/>
<stop offset="0.514999" stop-color="#19181B" stop-opacity="0.08"/>
<stop offset="1" stop-color="#4C1D95"/>
</linearGradient>
<linearGradient id="paint12_linear_7_2192" x1="432.571" y1="362.719" x2="-3.16681" y2="128.516" gradientUnits="userSpaceOnUse">
<stop stop-opacity="0"/>
<stop offset="0.514999" stop-color="#19181B" stop-opacity="0.08"/>
<stop offset="1" stop-color="#4C1D95"/>
</linearGradient>
<linearGradient id="paint13_linear_7_2192" x1="432.571" y1="362.719" x2="-3.16681" y2="128.516" gradientUnits="userSpaceOnUse">
<stop stop-opacity="0"/>
<stop offset="0.514999" stop-color="#19181B" stop-opacity="0.08"/>
<stop offset="1" stop-color="#4C1D95"/>
</linearGradient>
<linearGradient id="paint14_linear_7_2192" x1="432.571" y1="362.719" x2="-3.16681" y2="128.516" gradientUnits="userSpaceOnUse">
<stop stop-opacity="0"/>
<stop offset="0.514999" stop-color="#19181B" stop-opacity="0.08"/>
<stop offset="1" stop-color="#4C1D95"/>
</linearGradient>
<linearGradient id="paint15_linear_7_2192" x1="432.571" y1="362.719" x2="-3.16681" y2="128.516" gradientUnits="userSpaceOnUse">
<stop stop-opacity="0"/>
<stop offset="0.514999" stop-color="#19181B" stop-opacity="0.08"/>
<stop offset="1" stop-color="#4C1D95"/>
</linearGradient>
</defs>
</svg>
