<svg width="165" height="85" viewBox="0 0 165 85" fill="none" xmlns="http://www.w3.org/2000/svg">
<g clip-path="url(#clip0_1_2)">
<path d="M49.0616 56.6699C51.4415 56.1998 52.9191 53.4932 52.355 50.6374C52.0843 49.2664 51.3861 48.1162 50.4764 47.3325L53.3598 36.0151C53.553 36.0093 53.7476 36.0103 53.9433 35.9716C56.3232 35.5016 57.8008 32.795 57.2367 29.9391C56.6726 27.0832 54.2769 25.1417 51.897 25.6118C49.5171 26.0819 48.0394 28.7885 48.6035 31.6443C48.8743 33.0153 49.5724 34.1655 50.4822 34.9492L47.6002 46.2663C47.4055 46.2725 47.211 46.2714 47.0153 46.3101C46.8196 46.3487 46.6401 46.4237 46.4577 46.492L39.4893 37.1205C40.0327 36.0498 40.2411 34.7205 39.9703 33.3496C39.4062 30.4937 37.0105 28.5522 34.6306 29.0223C32.2507 29.4923 30.773 32.1989 31.3371 35.0548C31.9012 37.9107 34.297 39.8522 36.6769 39.3821C36.8726 39.3435 37.0521 39.2685 37.2345 39.2002L44.2029 48.5717C43.6594 49.6424 43.4511 50.9717 43.7218 52.3426C44.2859 55.1985 46.6817 57.14 49.0616 56.6699Z" fill="#6D28D9"/>
</g>
<path d="M34.6306 29.0223C37.0105 28.5522 39.4063 30.4937 39.9704 33.3496C40.2412 34.7205 40.0328 36.0498 39.4893 37.1205L46.4592 46.4917C46.6401 46.4237 46.8197 46.3487 47.0153 46.3101C49.3952 45.84 51.791 47.7815 52.3551 50.6374C52.9192 53.4932 51.4415 56.1998 49.0616 56.6699C46.6817 57.14 44.286 55.1985 43.7219 52.3426C43.4511 50.9717 43.6595 49.6424 44.2029 48.5717L37.2345 39.2002C37.0521 39.2685 36.8726 39.3435 36.6769 39.3821C36.4812 39.4208 36.2867 39.4197 36.092 39.4259L33.21 50.743C34.1198 51.5267 34.8179 52.6769 35.0887 54.0479C35.6528 56.9037 34.1751 59.6103 31.7952 60.0804C29.4153 60.5505 27.0196 58.609 26.4555 55.7531C25.8914 52.8972 27.3691 50.1906 29.7489 49.7206C29.9446 49.6819 30.1392 49.6829 30.3338 49.6768L33.2158 38.3596C32.3061 37.576 31.608 36.4258 31.3372 35.0548C30.7731 32.1989 32.2507 29.4923 34.6306 29.0223Z" fill="#6D28D9"/>
<path d="M63.375 57V38.35H66.875V40.95L66.55 40.2C67 39.5167 67.6083 38.9917 68.375 38.625C69.1583 38.2417 70.05 38.05 71.05 38.05C72.35 38.05 73.525 38.3667 74.575 39C75.625 39.6333 76.4583 40.4917 77.075 41.575C77.6917 42.6417 78 43.8417 78 45.175C78 46.4917 77.6917 47.6917 77.075 48.775C76.475 49.8583 75.65 50.7167 74.6 51.35C73.55 51.9833 72.3583 52.3 71.025 52.3C70.0917 52.3 69.225 52.1333 68.425 51.8C67.6417 51.45 67.0083 50.9417 66.525 50.275L67.125 49.5V57H63.375ZM70.575 48.925C71.275 48.925 71.8917 48.7667 72.425 48.45C72.9583 48.1333 73.375 47.6917 73.675 47.125C73.975 46.5583 74.125 45.9083 74.125 45.175C74.125 44.4417 73.975 43.8 73.675 43.25C73.375 42.6833 72.9583 42.2417 72.425 41.925C71.8917 41.5917 71.275 41.425 70.575 41.425C69.9083 41.425 69.3083 41.5833 68.775 41.9C68.2583 42.2167 67.85 42.6583 67.55 43.225C67.2667 43.7917 67.125 44.4417 67.125 45.175C67.125 45.9083 67.2667 46.5583 67.55 47.125C67.85 47.6917 68.2583 48.1333 68.775 48.45C69.3083 48.7667 69.9083 48.925 70.575 48.925ZM80.1963 52V38.35H83.9463V52H80.1963ZM80.1963 37.125V33.375H83.9463V37.125H80.1963ZM93.2654 52.15C91.6154 52.15 90.3321 51.7083 89.4154 50.825C88.5154 49.925 88.0654 48.675 88.0654 47.075V41.6H85.7654V38.35H85.8904C86.5904 38.35 87.1238 38.175 87.4904 37.825C87.8738 37.475 88.0654 36.95 88.0654 36.25V35.25H91.8154V38.35H95.0154V41.6H91.8154V46.825C91.8154 47.2917 91.8988 47.6833 92.0654 48C92.2321 48.3 92.4904 48.525 92.8404 48.675C93.1904 48.825 93.6238 48.9 94.1404 48.9C94.2571 48.9 94.3904 48.8917 94.5404 48.875C94.6904 48.8583 94.8488 48.8417 95.0154 48.825V52C94.7654 52.0333 94.4821 52.0667 94.1654 52.1C93.8488 52.1333 93.5488 52.15 93.2654 52.15ZM103.913 52.3C102.546 52.3 101.313 51.9917 100.213 51.375C99.1296 50.7417 98.2629 49.8833 97.6129 48.8C96.9796 47.7167 96.6629 46.5 96.6629 45.15C96.6629 43.8 96.9796 42.5917 97.6129 41.525C98.2462 40.4417 99.1129 39.5917 100.213 38.975C101.313 38.3583 102.546 38.05 103.913 38.05C104.93 38.05 105.871 38.225 106.738 38.575C107.605 38.925 108.346 39.4167 108.963 40.05C109.58 40.6667 110.021 41.4 110.288 42.25L107.038 43.65C106.805 42.9667 106.405 42.425 105.838 42.025C105.288 41.625 104.646 41.425 103.913 41.425C103.263 41.425 102.68 41.5833 102.163 41.9C101.663 42.2167 101.263 42.6583 100.963 43.225C100.68 43.7917 100.538 44.4417 100.538 45.175C100.538 45.9083 100.68 46.5583 100.963 47.125C101.263 47.6917 101.663 48.1333 102.163 48.45C102.68 48.7667 103.263 48.925 103.913 48.925C104.663 48.925 105.313 48.725 105.863 48.325C106.413 47.925 106.805 47.3833 107.038 46.7L110.288 48.125C110.038 48.925 109.605 49.6417 108.988 50.275C108.371 50.9083 107.63 51.4083 106.763 51.775C105.896 52.125 104.946 52.3 103.913 52.3ZM112.496 52V33.075H116.246V41.05L115.796 40.45C116.113 39.6333 116.621 39.0333 117.321 38.65C118.038 38.25 118.871 38.05 119.821 38.05C120.854 38.05 121.754 38.2667 122.521 38.7C123.304 39.1333 123.913 39.7417 124.346 40.525C124.779 41.2917 124.996 42.1917 124.996 43.225V52H121.246V44.025C121.246 43.4917 121.138 43.0333 120.921 42.65C120.721 42.2667 120.429 41.9667 120.046 41.75C119.679 41.5333 119.246 41.425 118.746 41.425C118.263 41.425 117.829 41.5333 117.446 41.75C117.063 41.9667 116.763 42.2667 116.546 42.65C116.346 43.0333 116.246 43.4917 116.246 44.025V52H112.496ZM127.462 52V38.35H131.212V52H127.462ZM127.462 37.125V33.375H131.212V37.125H127.462ZM133.956 52V38.35H137.456V41.05L137.256 40.45C137.573 39.6333 138.081 39.0333 138.781 38.65C139.498 38.25 140.331 38.05 141.281 38.05C142.314 38.05 143.214 38.2667 143.981 38.7C144.764 39.1333 145.373 39.7417 145.806 40.525C146.239 41.2917 146.456 42.1917 146.456 43.225V52H142.706V44.025C142.706 43.4917 142.598 43.0333 142.381 42.65C142.181 42.2667 141.889 41.9667 141.506 41.75C141.139 41.5333 140.706 41.425 140.206 41.425C139.723 41.425 139.289 41.5333 138.906 41.75C138.523 41.9667 138.223 42.2667 138.006 42.65C137.806 43.0333 137.706 43.4917 137.706 44.025V52H133.956Z" fill="white"/>
<defs>
<clipPath id="clip0_1_2">
<rect width="42.24" height="35.2" fill="white" transform="translate(32.8183 65.2603) rotate(-101.173)"/>
</clipPath>
</defs>
</svg>
