<svg width="1200" height="627" viewBox="0 0 1200 627" fill="none" xmlns="http://www.w3.org/2000/svg">
  <defs>
    <linearGradient id="bgGrad" x1="0" y1="0" x2="1200" y2="627" gradientUnits="userSpaceOnUse">
      <stop offset="0%" stop-color="#0a0a0a"/>
      <stop offset="100%" stop-color="#0f0518"/>
    </linearGradient>
    <radialGradient id="glowGrad" cx="15%" cy="50%" r="35%">
      <stop offset="0%" stop-color="#6D28D9" stop-opacity="0.20"/>
      <stop offset="100%" stop-color="#6D28D9" stop-opacity="0"/>
    </radialGradient>
    <linearGradient id="accentLine" x1="0" y1="0" x2="1200" y2="0" gradientUnits="userSpaceOnUse">
      <stop offset="0%" stop-color="#6D28D9" stop-opacity="0"/>
      <stop offset="50%" stop-color="#6D28D9"/>
      <stop offset="100%" stop-color="#6D28D9" stop-opacity="0"/>
    </linearGradient>
  </defs>

  <!-- Background -->
  <rect width="1200" height="627" fill="url(#bgGrad)"/>
  <ellipse cx="160" cy="313" rx="300" ry="280" fill="url(#glowGrad)"/>

  <!-- Accent lines -->
  <rect x="0" y="0" width="1200" height="3" fill="url(#accentLine)"/>
  <rect x="0" y="624" width="1200" height="3" fill="url(#accentLine)"/>

  <!-- Left column: logo mark -->
  <g transform="translate(60, 183) scale(0.64)">
    <path d="M159.813 191.557C171.245 189.299 178.343 176.297 175.633 162.579C174.333 155.993 170.979 150.468 166.609 146.704L180.46 92.3401C181.388 92.3119 182.323 92.3169 183.263 92.1313C194.694 89.8732 201.793 76.8719 199.083 63.1537C196.373 49.4354 184.865 40.1092 173.433 42.3672C162.001 44.6253 154.903 57.6266 157.613 71.3448C158.914 77.9303 162.267 83.4553 166.637 87.2198L152.793 141.582C151.858 141.612 150.924 141.607 149.984 141.793C149.044 141.978 148.181 142.338 147.305 142.666L113.832 97.6499C116.443 92.5066 117.444 86.1215 116.143 79.536C113.433 65.8178 101.925 56.4916 90.4931 58.7496C79.0611 61.0077 71.9631 74.0089 74.6727 87.7272C77.3824 101.446 88.8906 110.772 100.322 108.514C101.262 108.328 102.125 107.968 103.001 107.64L136.474 152.656C133.864 157.8 132.863 164.185 134.163 170.77C136.873 184.488 148.381 193.815 159.813 191.557Z" fill="#6D28D9"/>
    <path d="M90.4931 58.7496C101.925 56.4916 113.433 65.8178 116.143 79.536C117.444 86.1215 116.443 92.5066 113.832 97.6499L147.312 142.665C148.181 142.338 149.044 141.978 149.984 141.793C161.416 139.534 172.924 148.861 175.633 162.579C178.343 176.297 171.245 189.299 159.813 191.557C148.381 193.815 136.873 184.488 134.163 170.77C132.863 164.185 133.864 157.8 136.474 152.656L103.001 107.64C102.125 107.968 101.262 108.328 100.322 108.514C99.3825 108.699 98.4479 108.694 97.513 108.724L83.6691 163.086C88.0392 166.851 91.3926 172.376 92.6934 178.961C95.403 192.68 88.305 205.681 76.8731 207.939C65.4412 210.197 53.933 200.871 51.2233 187.153C48.5137 173.434 55.6117 160.433 67.0436 158.175C67.9836 157.989 68.9182 157.994 69.8531 157.965L83.6971 103.602C79.3269 99.8377 75.9735 94.3127 74.6728 87.7272C71.9631 74.0089 79.0612 61.0077 90.4931 58.7496Z" fill="#6D28D9"/>
  </g>

  <!-- Right: text content -->
  <text x="330" y="248" font-family="'Plus Jakarta Sans', 'Inter', 'Helvetica Neue', sans-serif" font-weight="700" font-size="96" fill="#ffffff" letter-spacing="-2">Pitchin</text>
  <text x="334" y="312" font-family="'Plus Jakarta Sans', 'Inter', 'Helvetica Neue', sans-serif" font-weight="400" font-size="30" fill="#9999b0">Build Fast, Scale Smart</text>

  <!-- Services row -->
  <text x="334" y="368" font-family="'Plus Jakarta Sans', 'Inter', sans-serif" font-size="17" font-weight="400" fill="#555570" letter-spacing="1.2">SOFTWARE DEVELOPMENT  ·  DIGITAL MARKETING  ·  GROWTH</text>

  <!-- Divider -->
  <rect x="334" y="398" width="520" height="1" fill="#6D28D9" opacity="0.3"/>

  <!-- Bottom line -->
  <text x="334" y="436" font-family="'Plus Jakarta Sans', 'Inter', sans-serif" font-size="20" font-weight="500" fill="#6D28D9" opacity="0.85" letter-spacing="0.5">pitchin.mobi</text>

  <!-- LinkedIn branding note (top right corner) -->
  <text x="1140" y="56" font-family="'Plus Jakarta Sans', 'Inter', sans-serif" font-size="13" font-weight="400" fill="#333350" text-anchor="end">linkedin</text>
</svg>
